<svg id="Layer_1" enable-background="new 0 0 512 512" height="512" viewBox="0 0 512 512" width="512" xmlns="http://www.w3.org/2000/svg"><g id="_x30_8_Bus"><g><path d="m83.147 480c0 17.653 14.347 32 32 32h39.094c17.653 0 32-14.347 32-32v-13.44h-103.094z"/><path d="m325.76 480c0 17.653 14.347 32 32 32h39.093c17.653 0 32-14.347 32-32v-13.44h-103.093z"/><path d="m480 117.973h-14.666v-53.973c0-35.253-28.694-64-64-64h-290.668c-35.253 0-64 28.747-64 64v53.973h-14.666c-17.653 0-32 14.347-32 32v55.52c0 17.653 14.347 32 32 32h14.666v175.733c0 17.653 14.347 32 32 32h354.666c17.653 0 32-14.347 32-32v-175.733h14.666c17.653 0 32-14.347 32-32v-55.52c.002-17.653-14.346-32-31.998-32zm-411.999 199.04v-205.546h177.387v205.546h-74.577l15.049-6.618c23.209-10.208 38.209-33.201 38.209-58.573v-42.826c.072-.495.109-1.002.109-1.516-.005-5.89-4.776-10.667-10.667-10.667s-10.776 4.883-10.776 10.774v44.235c0 16.914-9.995 32.242-25.464 39.047l-59.452 26.143h-49.818zm56.16 95.947c-16.373 0-29.653-13.28-29.653-29.653 0-16.32 13.28-29.653 29.653-29.653 16.32 0 29.653 13.333 29.653 29.653 0 16.373-13.333 29.653-29.653 29.653zm188.798-18.986h-113.919c-5.867 0-10.667-4.747-10.667-10.667 0-5.867 4.8-10.667 10.667-10.667h113.92c5.92 0 10.667 4.8 10.667 10.667-.001 5.92-4.747 10.667-10.668 10.667zm74.934 18.986c-16.373 0-29.653-13.28-29.653-29.653 0-16.32 13.28-29.653 29.653-29.653 16.32 0 29.653 13.333 29.653 29.653.001 16.373-13.332 29.653-29.653 29.653zm56.106-95.947h-49.682l-59.448-26.143c-15.469-6.805-25.469-22.133-25.469-39.047v-44.235c0-5.89-4.881-10.774-10.771-10.774s-10.662 4.776-10.667 10.667c0 .502.037.997.104 1.482v42.86c0 25.373 15 48.365 38.214 58.573l15.048 6.618h-74.61v-205.547h177.28z"/></g></g></svg>