<svg xmlns="http://www.w3.org/2000/svg" xmlns:xlink="http://www.w3.org/1999/xlink" viewBox="0 0 1300 800"><defs><clipPath id="clip-path"><rect width="1300" height="800" fill="none"/></clipPath><radialGradient id="radial-gradient" cx="629" cy="867.98" r="687.06" gradientUnits="userSpaceOnUse"><stop offset="0" stop-color="#569ed2"/><stop offset="0.02" stop-color="#549fd0"/><stop offset="0.46" stop-color="#26b8a4"/><stop offset="0.8" stop-color="#0ac789"/><stop offset="1" stop-color="#00cd7f"/></radialGradient><radialGradient id="radial-gradient-2" cx="855.64" cy="-15" r="547.08" gradientUnits="userSpaceOnUse"><stop offset="0" stop-color="#6a0026"/><stop offset="0.47" stop-color="#370014"/><stop offset="1"/></radialGradient><radialGradient id="radial-gradient-3" cx="1312.99" cy="576.15" r="507.49" gradientUnits="userSpaceOnUse"><stop offset="0" stop-color="#6a0026"/><stop offset="0.63" stop-color="#29000f"/><stop offset="1"/></radialGradient><radialGradient id="radial-gradient-4" cx="809.63" cy="351.62" r="469.16" gradientTransform="translate(1534.08 -60.55) rotate(136.62) scale(1 0.56)" gradientUnits="userSpaceOnUse"><stop offset="0"/><stop offset="1" stop-opacity="0"/></radialGradient><linearGradient id="linear-gradient" x1="497" y1="442.58" x2="1549.69" y2="442.58" gradientUnits="userSpaceOnUse"><stop offset="0.02" stop-opacity="0"/><stop offset="0.52" stop-color="#fff"/><stop offset="1" stop-opacity="0"/></linearGradient><radialGradient id="radial-gradient-5" cx="1038.63" cy="351.62" r="469.16" gradientTransform="translate(1929.51 -217.84) rotate(136.62) scale(1 0.56)" xlink:href="#radial-gradient-4"/><linearGradient id="linear-gradient-2" x1="726" y1="442.58" x2="1778.69" y2="442.58" xlink:href="#linear-gradient"/><radialGradient id="radial-gradient-6" cx="1262.63" cy="351.62" r="469.16" gradientTransform="translate(2316.31 -371.7) rotate(136.62) scale(1 0.56)" xlink:href="#radial-gradient-4"/><linearGradient id="linear-gradient-3" x1="950" y1="442.58" x2="2002.69" y2="442.58" xlink:href="#linear-gradient"/><radialGradient id="radial-gradient-7" cx="801.61" cy="386.33" r="469.16" gradientTransform="translate(1686.76 807.63) rotate(-133.38) scale(1 0.56)" xlink:href="#radial-gradient-4"/><linearGradient id="linear-gradient-4" x1="488.98" y1="477.29" x2="1541.68" y2="477.29" gradientTransform="translate(1680.63 -726.04) rotate(90)" xlink:href="#linear-gradient"/><radialGradient id="radial-gradient-8" cx="801.61" cy="157.69" r="469.16" gradientTransform="translate(2009 719.18) rotate(-133.38) scale(1 0.56)" xlink:href="#radial-gradient-4"/><linearGradient id="linear-gradient-5" x1="488.98" y1="248.65" x2="1541.68" y2="248.65" gradientTransform="translate(1680.63 -726.04) rotate(90)" xlink:href="#linear-gradient"/><radialGradient id="radial-gradient-9" cx="801.61" cy="612.33" r="469.16" gradientTransform="translate(1368.25 895.06) rotate(-133.38) scale(1 0.56)" xlink:href="#radial-gradient-4"/><linearGradient id="linear-gradient-6" x1="488.98" y1="703.29" x2="1541.68" y2="703.29" gradientTransform="translate(1680.63 -726.04) rotate(90)" xlink:href="#linear-gradient"/><radialGradient id="radial-gradient-10" cx="1403.16" cy="467.81" r="469.16" gradientTransform="translate(1985.12 1877.9) rotate(-133.38) scale(1 0.56)" xlink:href="#radial-gradient-4"/><radialGradient id="radial-gradient-11" cx="1173.68" cy="467.81" r="469.16" gradientTransform="translate(1827.49 1481.63) rotate(-133.38) scale(1 0.56)" xlink:href="#radial-gradient-4"/><radialGradient id="radial-gradient-12" cx="275.99" cy="883.12" r="94.88" gradientTransform="matrix(0, 0.3, -2.31, 0, 3106.11, 206.38)" gradientUnits="userSpaceOnUse"><stop offset="0" stop-color="#970026"/><stop offset="0.13" stop-color="#920025"/><stop offset="0.3" stop-color="#820021"/><stop offset="0.49" stop-color="#68001a"/><stop offset="0.7" stop-color="#401"/><stop offset="0.91" stop-color="#170006"/><stop offset="1"/></radialGradient><radialGradient id="radial-gradient-13" cx="806.81" cy="952.65" r="94.88" gradientTransform="matrix(0, 0.3, -2.31, 0, 3265.97, 273.43)" gradientUnits="userSpaceOnUse"><stop offset="0" stop-color="#970026"/><stop offset="0.18" stop-color="#930025"/><stop offset="0.34" stop-color="#890022"/><stop offset="0.5" stop-color="#76001e"/><stop offset="0.65" stop-color="#5d0017"/><stop offset="0.8" stop-color="#3b000f"/><stop offset="0.94" stop-color="#130005"/><stop offset="1"/></radialGradient><radialGradient id="radial-gradient-14" cx="1344.49" cy="907.25" r="94.88" gradientTransform="matrix(0, 0.25, -2.31, 0, 3351.93, 223.73)" gradientUnits="userSpaceOnUse"><stop offset="0" stop-color="#970026"/><stop offset="0.41" stop-color="#950026"/><stop offset="0.56" stop-color="#8e0024"/><stop offset="0.67" stop-color="#830021"/><stop offset="0.76" stop-color="#72001d"/><stop offset="0.83" stop-color="#5c0017"/><stop offset="0.89" stop-color="#400010"/><stop offset="0.95" stop-color="#210008"/><stop offset="1"/></radialGradient><radialGradient id="radial-gradient-15" cx="889.22" cy="1025.02" r="94.88" gradientTransform="translate(1103.26 2544.79) rotate(180) scale(0.14 2.31)" xlink:href="#radial-gradient-14"/></defs><g style="isolation:isolate"><g id="Layer_1" data-name="Layer 1"><g clip-path="url(#clip-path)"><rect width="1300" height="800" fill="url(#radial-gradient)"/><circle cx="855.64" cy="-15" r="547.08" fill="url(#radial-gradient-2)" style="mix-blend-mode:color-dodge"/><circle cx="1312.99" cy="576.15" r="507.49" fill="url(#radial-gradient-3)" style="mix-blend-mode:color-dodge"/><polygon points="1316.46 35.39 500.62 851.23 728.77 851.23 1546.05 33.95 1316.46 35.39" opacity="0.43" fill="url(#radial-gradient-4)" style="mix-blend-mode:overlay"/><polygon points="1316.46 35.39 500.62 851.23 728.77 851.23 1546.05 33.95 1316.46 35.39" fill="none" stroke-miterlimit="10" stroke-width="3" opacity="0.43" stroke="url(#linear-gradient)" style="mix-blend-mode:overlay"/><polygon points="1545.46 35.39 729.62 851.23 957.77 851.23 1775.05 33.95 1545.46 35.39" opacity="0.43" fill="url(#radial-gradient-5)" style="mix-blend-mode:overlay"/><polygon points="1545.46 35.39 729.62 851.23 957.77 851.23 1775.05 33.95 1545.46 35.39" fill="none" stroke-miterlimit="10" stroke-width="3" opacity="0.43" stroke="url(#linear-gradient-2)" style="mix-blend-mode:overlay"/><polygon points="1769.46 35.39 953.62 851.23 1181.77 851.23 1999.05 33.95 1769.46 35.39" opacity="0.43" fill="url(#radial-gradient-6)" style="mix-blend-mode:overlay"/><polygon points="1769.46 35.39 953.62 851.23 1181.77 851.23 1999.05 33.95 1769.46 35.39" fill="none" stroke-miterlimit="10" stroke-width="3" opacity="0.43" stroke="url(#linear-gradient-3)" style="mix-blend-mode:overlay"/><polygon points="1610.53 582.41 794.69 -233.43 794.69 -5.29 1611.98 812 1610.53 582.41" opacity="0.43" fill="url(#radial-gradient-7)" style="mix-blend-mode:overlay"/><polygon points="1610.53 582.41 794.69 -233.43 794.69 -5.29 1611.98 812 1610.53 582.41" fill="none" stroke-miterlimit="10" stroke-width="3" opacity="0.43" stroke="url(#linear-gradient-4)" style="mix-blend-mode:overlay"/><polygon points="1839.17 582.41 1023.34 -233.43 1023.34 -5.29 1840.62 812 1839.17 582.41" opacity="0.43" fill="url(#radial-gradient-8)" style="mix-blend-mode:overlay"/><polygon points="1839.17 582.41 1023.34 -233.43 1023.34 -5.29 1840.62 812 1839.17 582.41" fill="none" stroke-miterlimit="10" stroke-width="3" opacity="0.43" stroke="url(#linear-gradient-5)" style="mix-blend-mode:overlay"/><polygon points="1384.53 582.41 568.69 -233.43 568.69 -5.29 1385.98 812 1384.53 582.41" opacity="0.43" fill="url(#radial-gradient-9)" style="mix-blend-mode:overlay"/><polygon points="1384.53 582.41 568.69 -233.43 568.69 -5.29 1385.98 812 1384.53 582.41" fill="none" stroke-miterlimit="10" stroke-width="3" opacity="0.43" stroke="url(#linear-gradient-6)" style="mix-blend-mode:overlay"/><polygon points="1529.05 1183.96 713.21 368.12 713.21 596.27 1530.5 1413.55 1529.05 1183.96" opacity="0.43" fill="url(#radial-gradient-10)" style="mix-blend-mode:overlay"/><polygon points="1529.05 954.47 713.21 138.63 713.21 366.78 1530.5 1184.06 1529.05 954.47" opacity="0.43" fill="url(#radial-gradient-11)" style="mix-blend-mode:overlay"/><ellipse cx="1062.79" cy="289.28" rx="219.52" ry="28.5" transform="translate(106.73 836.24) rotate(-45)" opacity="0.75" fill="url(#radial-gradient-12)" style="mix-blend-mode:color-dodge"/><ellipse cx="1061.79" cy="515.77" rx="219.52" ry="28.5" transform="translate(-53.71 901.87) rotate(-45)" opacity="0.75" fill="url(#radial-gradient-13)" style="mix-blend-mode:color-dodge"/><ellipse cx="1252.8" cy="558.23" rx="219.52" ry="23.6" transform="translate(-27.79 1049.36) rotate(-45)" opacity="0.75" fill="url(#radial-gradient-14)" style="mix-blend-mode:color-dodge"/><ellipse cx="975.24" cy="173.15" rx="13.66" ry="219.52" transform="translate(163.2 740.32) rotate(-45)" opacity="0.75" fill="url(#radial-gradient-15)" style="mix-blend-mode:color-dodge"/></g></g></g></svg>