<svg id="Layer_1" data-name="Layer 1" xmlns="http://www.w3.org/2000/svg" viewBox="0 0 302.72 322.27"><g id="White"><path d="M500,229.37a45,45,0,0,1-43.3-57.3h27.53A20,20,0,0,0,500,204.37H605.24a107.89,107.89,0,0,0,0-40H549.11a53.15,53.15,0,0,0-21.08-25h69.19a107.14,107.14,0,0,0-194.44,0H500a45,45,0,0,1,43.3,57.3H515.79A20,20,0,0,0,500,164.37H394.76a107.89,107.89,0,0,0,0,40h56.13a53.15,53.15,0,0,0,21.08,25H402.78a107.14,107.14,0,0,0,194.44,0Z" transform="translate(-348.21 -77.26)" fill="#fff"/><path d="M398.12,399.53H385.25V373.24H361.12v26.29H348.21V338.61h12.91v23.88h24.13V338.61h12.87Z" transform="translate(-348.21 -77.26)" fill="#fff"/><path d="M441,363.7l12.71-25.09h13.92l-20.21,37.21v23.71H434.57V376.24l-20.2-37.63h14Z" transform="translate(-348.21 -77.26)" fill="#fff"/><path d="M503.28,338.61q11.79,0,17.2,5.07t5.42,13.93a24,24,0,0,1-1.21,7.65,16.86,16.86,0,0,1-3.94,6.48,18.79,18.79,0,0,1-7.27,4.48,33,33,0,0,1-11.2,1.64h-5.55v21.67H483.82V338.61Zm-.67,10.59h-5.88v18.08H501a18.63,18.63,0,0,0,6.3-1,8.41,8.41,0,0,0,4.12-3,8.83,8.83,0,0,0,1.46-5.25q0-4.5-2.5-6.69T502.61,349.2Z" transform="translate(-348.21 -77.26)" fill="#fff"/><path d="M581,399.53H545.93V338.61H581V349.2H558.85v13.37h20.63v10.59H558.85v15.7H581Z" transform="translate(-348.21 -77.26)" fill="#fff"/><path d="M620,338.61a40,40,0,0,1,13.69,2,15.71,15.71,0,0,1,8,6.05,18.36,18.36,0,0,1,2.62,10.2,15.92,15.92,0,0,1-1.58,7.3,16.54,16.54,0,0,1-4.17,5.29A24.82,24.82,0,0,1,633,373l17.92,26.54H636.59l-14.54-23.37h-6.87v23.37H602.26V338.61Zm-.92,10.59h-3.91v16.46h4.16q6.42,0,9.19-2.15a7.48,7.48,0,0,0,2.77-6.31q0-4.33-3-6.17T619.09,349.2Z" transform="translate(-348.21 -77.26)" fill="#fff"/></g></svg>