<svg id="Layer_1" data-name="Layer 1" xmlns="http://www.w3.org/2000/svg" viewBox="0 0 273 398.72"><ellipse cx="136.5" cy="383.72" rx="67.5" ry="15" fill="#8e8e8e" opacity="0.4" style="isolation:isolate"/><path d="M145.29,423.05c.45.89.89,1.74,1.32,2.58Q146,424.39,145.29,423.05Z" transform="translate(-22.5 -63.22)" fill="#ff6469"/><path d="M159,431.13a852.77,852.77,0,0,1-62.28-81.71C56.34,288.94,35,237.17,35,199.72c0-67.92,55.25-123.55,123.16-124H159a124.15,124.15,0,0,1,124,124c0,37.45-21.34,89.21-61.71,149.7A860,860,0,0,1,159,431.13Z" transform="translate(-22.5 -63.22)" fill="#4927eb"/><path d="M159,88.22a111.63,111.63,0,0,1,111.5,111.5c0,35-20.61,84.33-59.61,142.76A846.21,846.21,0,0,1,159,411.79a852.16,852.16,0,0,1-51.89-69.31c-39-58.42-59.61-107.79-59.61-142.76,0-61.08,49.68-111.09,110.74-111.49H159m0-25h-.92C83.24,63.72,22.5,124.76,22.5,199.72c0,97.24,126.29,238.86,131.67,244.85a6.5,6.5,0,0,0,9.66,0c5.38-6,131.67-147.61,131.67-244.85,0-75.24-61.23-136.5-136.5-136.5Z" transform="translate(-22.5 -63.22)" fill="#fff"/><circle cx="136.5" cy="134.37" r="46.71" fill="#fff"/><path d="M159,163.37a34.22,34.22,0,1,1-34.21,34.22A34.25,34.25,0,0,1,159,163.37m0-25a59.22,59.22,0,1,0,59.21,59.22A59.21,59.21,0,0,0,159,138.37Z" transform="translate(-22.5 -63.22)" fill="#fff"/></svg>