<svg id="Layer_1" data-name="Layer 1" xmlns="http://www.w3.org/2000/svg" xmlns:xlink="http://www.w3.org/1999/xlink" viewBox="0 0 391.79 391.79"><defs><linearGradient id="linear-gradient" x1="133.86" y1="332.67" x2="270.12" y2="332.67" gradientUnits="userSpaceOnUse"><stop offset="0" stop-color="#a1a1a1"/><stop offset="0.06" stop-color="#b2b2b2"/><stop offset="0.19" stop-color="#d4d4d4"/><stop offset="0.31" stop-color="#ececec"/><stop offset="0.43" stop-color="#fafafa"/><stop offset="0.52" stop-color="#fff"/><stop offset="0.64" stop-color="#fcfcfb"/><stop offset="0.75" stop-color="#f1f1f1"/><stop offset="0.86" stop-color="#dfdfde"/><stop offset="0.96" stop-color="#c6c6c5"/><stop offset="1" stop-color="#babab9"/></linearGradient><linearGradient id="linear-gradient-2" x1="203.87" y1="404.59" x2="203.87" y2="263.09" gradientUnits="userSpaceOnUse"><stop offset="0" stop-color="#fff"/><stop offset="0.24" stop-color="#fbfbfb"/><stop offset="0.48" stop-color="#f0f0ef"/><stop offset="0.71" stop-color="#dcdcdc"/><stop offset="0.95" stop-color="#c1c1c0"/><stop offset="1" stop-color="#babab9"/></linearGradient></defs><rect width="391.79" height="391.63" fill="#dbdbdb"/><path d="M270.12,358.28c-45.13-16-90.76-15.45-136.26,0V315.57c45.8-11.72,91.19-10.95,136.26,0Z" transform="translate(-4.35 -4.6)" fill="url(#linear-gradient)"/><path d="M251,279.19c-3.41,0,2.73,43.28,5.88,53.67C264,356.54,352,376.59,352.61,392.3c.17,4.09,0,4.1,0,4.1H55.06l27.71-26.65,21.08-5.46,11.21-5.3a33.91,33.91,0,0,0,6.1-3.71l23-17.49a36.3,36.3,0,0,0,6.63-22.7c-.6-13.66-.6-35.9-.6-35.9Z" transform="translate(-4.35 -4.6)" fill="url(#linear-gradient-2)"/><path d="M131.25,212.48s-15.77-29.38-18.55-33.95,2.08-20.24,0-23.5-2.77-50.91,13.87-65.27S152.9,71.48,152.9,71.48c4.12-3.55,31.52-13.56,43-11.75,34.65,5.45,28.88,3.67,35.28,3.26,14.71,2.38,25.94,6.34,24.2,16,5.54-2.85,9.94-2.88,14.61.35-1.29,2.73-1.45,4.52,0,5.88,0,0,18,.65,18,45.69,0,43.36-3.36,58.87-8.32,61.35s-14.08,11.3-14.08,11.3,2.3-78.5-19.88-77.87-38.43,11.79-92.17,0C141.81,123.07,125,196.82,131.25,212.48Z" transform="translate(-4.35 -4.6)" fill="#a8a8a8"/><path d="M129.43,240.09S139,286.91,163,301.44c37.49,22.7,63.24,3.45,63.24,3.45s29.91-26.81,34.82-42.61A228,228,0,0,0,267,240.09a9.13,9.13,0,0,0,6.58-3.27c2.63-3.26,3.29-24.15,5.26-30s3.29-15.67-3.29-15-9.87,11.75-9.87,11.75,6-19.74,2-31.49-1.37-36.39-17.16-46.18-35.91-6.53-45.59-3.26-30.09,1.3-42.6-3.27-26.47,16.21-28.44,26-5.12,50.37-4.46,58.2l.66,7.84s-4.61-20.89-8.56-22.2-11.18-1.3-9.87,14.36,2.92,3.54,8.56,32.64C123.51,253.14,129.43,240.09,129.43,240.09Z" transform="translate(-4.35 -4.6)" fill="#f4f4f4"/><path d="M133.79,315.88s-5.74,33.75-9.42,34.7,40.77,22.83,57.11,24.94c0,0,9.82-17,20.81-22.13C202.29,353.39,136.05,330.91,133.79,315.88Z" transform="translate(-4.35 -4.6)" fill="#fff"/><path d="M270.24,315.57s6,33.68,9.68,34.59-40.07,23.27-56.2,25.56c0,0-9.89-16.89-20.82-21.91C202.9,353.81,268.16,330.62,270.24,315.57Z" transform="translate(-4.35 -4.6)" fill="#fff"/></svg>