<svg id="Layer_1" data-name="Layer 1" xmlns="http://www.w3.org/2000/svg" viewBox="0 0 200 200"><path d="M6.5,99.84V25.76c0-11.1,8.15-19.24,19.25-19.24h148.5c11.09,0,19.25,8.15,19.25,19.24V174.24c0,11.08-8.17,19.24-19.25,19.24q-74.25,0-148.51,0c-11.09,0-19.24-8.15-19.24-19.24Z" fill="#fefefe"/><path d="M100,191.89q-37.12,0-74.25,0c-10.25,0-17.66-7.39-17.66-17.6V25.64c0-10.11,7.44-17.53,17.57-17.53H174.32c10.14,0,17.59,7.42,17.59,17.52V174.27c0,10.22-7.42,17.62-17.65,17.62Q137.14,191.91,100,191.89Z" fill="#ae206f"/><path d="M29.85,64.57c0-5.62.11-11.24,0-16.85-.27-11.63,8-19.49,17-21.73a23.8,23.8,0,0,1,18.66,2.74,2.07,2.07,0,0,0,2.51,0C79.05,22,93.82,25.28,100.48,36a19.44,19.44,0,0,1,3,10.37c0,12.77,0,25.54,0,38.31,0,1.15-.35,1.39-1.43,1.38q-7.87-.09-15.74,0C85.23,86,85,85.65,85,84.59q0-18.69,0-37.36c0-2.83-1.63-4.66-4.2-4.81A4.39,4.39,0,0,0,76,46.87c0,2.33,0,4.67,0,7,0,10.17,0,20.34,0,30.52,0,1.34-.38,1.66-1.68,1.64q-7.71-.12-15.42,0c-1.22,0-1.48-.36-1.48-1.52.05-12.45,0-24.9,0-37.35A4.3,4.3,0,0,0,55.28,43a4.57,4.57,0,0,0-4.84.06,4.24,4.24,0,0,0-2,4c0,5.56,0,11.12,0,16.69,0,6.88,0,13.77,0,20.66,0,1.1-.15,1.58-1.44,1.56C41.74,86,36.49,86,31.24,86c-1.12,0-1.42-.32-1.42-1.43C29.87,77.92,29.85,71.24,29.85,64.57Z" fill="#fefefe"/><path d="M29.85,134.69c0-5.67.09-11.34,0-17-.24-11.81,8.45-19.83,17.9-21.79a23.78,23.78,0,0,1,18,3.11,1.69,1.69,0,0,0,2.1-.1c10.59-6.47,24.71-3.86,31.76,5.85a19.78,19.78,0,0,1,3.94,11.85c0,12.66,0,25.33,0,38,0,1.21-.33,1.5-1.5,1.48-5.2-.06-10.39-.07-15.58,0-1.24,0-1.47-.38-1.46-1.52,0-12.46,0-24.91,0-37.36A4.27,4.27,0,0,0,82.67,113a4.54,4.54,0,0,0-4.82.29,4.48,4.48,0,0,0-1.91,4.12q0,14.14,0,28.29c0,3,0,6,0,9.06,0,1-.28,1.27-1.26,1.26-5.35,0-10.7-.06-16,0-1.35,0-1.24-.71-1.24-1.59q0-18.6,0-37.19c0-3.45-2.78-5.54-6-4.55-2,.63-3.06,2.16-3.06,4.64q0,18.28,0,36.56c0,2.4.28,2.09-2.12,2.1-5,0-10,0-15,0-1.2,0-1.51-.33-1.5-1.51C29.88,147.94,29.85,141.31,29.85,134.69Z" fill="#fefefe"/><path d="M109.33,55.5A30.37,30.37,0,1,1,139.55,86,30.37,30.37,0,0,1,109.33,55.5Z" fill="#fefefe"/><path d="M109.33,125.68A30.37,30.37,0,1,1,139.63,156,30.47,30.47,0,0,1,109.33,125.68Z" fill="#fefefe"/><path d="M29.85,170.08c0-1.06,0-2.12,0-3.18s1.23-2,1.91-1.16,1.14.31,1.71,0a2.77,2.77,0,0,1,3,.09,1.46,1.46,0,0,0,2.18.07,2.87,2.87,0,0,1,4.62,2.27c.14,1.89,0,3.81.07,5.71,0,1.07-.72.8-1.31.84s-1.23,0-1.19-1c.06-1.59,0-3.18,0-4.76,0-.83-.1-1.66-1.2-1.7s-1.52.59-1.71,1.53a25.5,25.5,0,0,0-.16,4.28c0,.8.27,1.65-1.16,1.66s-1.25-.7-1.23-1.58c0-1.38,0-2.76,0-4.13,0-.8,0-1.68-1.14-1.76a1.59,1.59,0,0,0-1.83,1.56,41.56,41.56,0,0,0-.11,4.6c0,.9-.13,1.34-1.19,1.3s-1.36-.22-1.28-1.24S29.85,171.24,29.85,170.08Z" fill="#fefdfd"/><path d="M106.92,170.06c0-1.06,0-2.12,0-3.18,0-.43-.25-1.08.4-1.2s1.4-.39,1.73.28.5.42.88.17c1.44-.93,2.88-1.07,4.19.21.44.44.68.26,1,0a3.22,3.22,0,0,1,3.7-.53c1.37.63,1.51,1.92,1.5,3.24,0,1.59,0,3.18,0,4.76,0,.91-.38,1.07-1.13,1s-1.42.17-1.37-1c.06-1.54,0-3.07,0-4.61,0-.84,0-1.83-1.19-1.86s-1.7.77-1.75,1.84a43.84,43.84,0,0,0,0,4.44c.06,1.12-.51,1.14-1.35,1.17s-1.17-.33-1.14-1.19c0-1.48,0-3,0-4.45,0-.86,0-1.79-1.23-1.82a1.61,1.61,0,0,0-1.74,1.68c-.11,1.42-.11,2.86-.13,4.28,0,.8.17,1.52-1.14,1.53s-1.27-.71-1.24-1.6C106.94,172.18,106.92,171.12,106.92,170.06Z" fill="#fefdfe"/><path d="M62.73,166.36c2.72-1.41,4.71-1,5.84.94,1.27,2.22.66,5.83-1.22,7.07a3,3,0,0,1-2.25.59c-1.24-.25-2.32-1.24-3.75-.25-.68.46-1.14-.17-1.12-1.07.05-3.44.05-6.87,0-10.31,0-.92.29-1.17,1.17-1.15s1.44.09,1.35,1.18C62.67,164.3,62.73,165.26,62.73,166.36Z" fill="#fefdfe"/><path d="M165.46,172.07c.7-2.09,1.26-3.77,1.84-5.45a1.93,1.93,0,0,1,2.41-1c.41.24.21.54.11.82-1.24,3.36-2.44,6.75-3.76,10.09a3.4,3.4,0,0,1-3.79,1.93c-.79-.14-.82-.65-.89-1.26-.08-.79.44-.62.9-.68,1.57-.23,2.12-1.19,1.55-2.71-1-2.66-2-5.31-3-8,2.3-.58,2.43-.51,3.11,1.52C164.37,168.79,164.84,170.2,165.46,172.07Z" fill="#fefdfd"/><path d="M56.51,170.21a4.6,4.6,0,0,1-4.62,4.8,4.78,4.78,0,1,1,4.62-4.8Z" fill="#fefdfd"/><path d="M128.9,165.46a4.49,4.49,0,0,1,4.65,4.72,4.65,4.65,0,0,1-4.62,4.83,4.54,4.54,0,0,1-4.79-4.93A4.48,4.48,0,0,1,128.9,165.46Z" fill="#fefdfd"/><path d="M91.5,170.91a5.14,5.14,0,0,0-1.11,0c-.59.15-1.49-.51-1.74.42a1.48,1.48,0,0,0,.9,1.54c.77.42,1.62.49,2.12-.31s1-.56,1.6-.5c1.4.11,1.11.71.52,1.46a4.68,4.68,0,0,1-5.79.84c-1.71-1.06-2.43-3.78-1.63-6.14A4.07,4.07,0,0,1,91,165.49a4.38,4.38,0,0,1,3.61,4.84c-.08.51-.32.58-.72.58Z" fill="#fefdfd"/><path d="M154.82,170.91c-.58,0-1.17,0-1.74,0-.38,0-1-.26-1.08.29a1.73,1.73,0,0,0,.36,1.16,1.6,1.6,0,0,0,2.67.17c.78-1.15,1.64-.38,2.38-.27.54.08.1.69-.09,1-1.06,1.76-4,2.3-6,1.1-1.72-1.05-2.45-3.78-1.64-6.14a4.06,4.06,0,0,1,4.62-2.74,4.35,4.35,0,0,1,3.59,4.84c-.09.51-.33.58-.73.58Z" fill="#fefdfd"/><path d="M137.41,170.15c0-1.11,0-2.23,0-3.34,0-.43-.22-1.08.48-1.15s1.44-.41,1.69.35c.33,1,.63.29.93.1,2.65-1.62,5.1-.38,5.2,2.68.05,1.64,0,3.29,0,4.93.05,1.05-.52,1-1.28,1.06s-1.26-.15-1.21-1.12c.07-1.48,0-3,0-4.45,0-1-.23-1.85-1.44-1.87a1.73,1.73,0,0,0-1.9,1.73,41.55,41.55,0,0,0-.1,4.6c0,1-.39,1.11-1.22,1.12s-1.26-.2-1.2-1.15C137.46,172.48,137.41,171.32,137.41,170.15Z" fill="#fefdfd"/><path d="M79.93,168.36c0-1.74,0-3.49,0-5.23,0-.94.44-1,1.17-1s1.33,0,1.32,1c-.05,3.54-.05,7.09,0,10.63,0,1.12-.67.94-1.36,1s-1.17-.1-1.13-1C80,172,79.93,170.16,79.93,168.36Z" fill="#fcfafb"/><path d="M75.52,170.14c0,1.16,0,2.32,0,3.48,0,.86-.19,1.23-1.12,1.18s-1.4,0-1.37-1.14c.08-2.32.06-4.64,0-7,0-1,.43-1.12,1.25-1.12s1.31.08,1.23,1.09S75.52,169,75.52,170.14Z" fill="#fcf9fa"/><path d="M74.31,164.44c-1.17.21-1.26-.42-1.29-1.28,0-1.18.72-1,1.46-1.07,1-.09,1,.48,1.07,1.25C75.6,164.39,75.13,164.64,74.31,164.44Z" fill="#f5e9ee"/><path d="M139.7,42.41a13.2,13.2,0,1,1-13.22,13.25A13.19,13.19,0,0,1,139.7,42.41Z" fill="#ae2070"/><path d="M139.72,138.9A13.22,13.22,0,1,1,153,125.67,13.26,13.26,0,0,1,139.72,138.9Z" fill="#ae2070"/><path d="M66.69,170.58a5.38,5.38,0,0,1-.28,1.31A1.67,1.67,0,0,1,64.25,173c-1.26-.37-1.87-2-1.46-3.92a1.86,1.86,0,0,1,2.09-1.71C66.09,167.42,66.69,168.4,66.69,170.58Z" fill="#af2170"/><path d="M54,170.24c0,1.63-.93,2.77-2.21,2.77s-2.24-1.17-2.2-2.91.92-2.71,2.27-2.67S54.06,168.6,54,170.24Z" fill="#af2170"/><path d="M128.79,167.43c1.32,0,2.27,1.07,2.31,2.67s-.93,2.91-2.26,2.9-2.13-1.05-2.19-2.61C126.59,168.65,127.44,167.47,128.79,167.43Z" fill="#af2271"/><path d="M90.4,169.55c-.61-.43-1.66.42-1.7-.69a1.5,1.5,0,0,1,1.65-1.53c1,0,1.71.52,1.68,1.47C92,170.11,90.8,168.93,90.4,169.55Z" fill="#b02572"/><path d="M153.73,169.48c-.55-.33-1.6.44-1.68-.56a1.53,1.53,0,0,1,1.76-1.59,1.47,1.47,0,0,1,1.59,1.59C155.3,170,154.27,169.13,153.73,169.48Z" fill="#b02572"/></svg>