<svg id="Layer_1" data-name="Layer 1" xmlns="http://www.w3.org/2000/svg" viewBox="0 0 200 200"><path d="M164.24,54.34c7.75,5.44,12.87,12.84,14.31,22.1,3,19-3.41,35-16.86,48.38a54.79,54.79,0,0,1-27.79,14.65,59.45,59.45,0,0,1-15.69,1.19c-7.74-.43-13.83,4.28-15.11,13.26-1.43,10.12-3.33,20.18-5,30.27a19.22,19.22,0,0,0-.4,2.37c-.23,4.18-2.11,7.2-6,8.85h-26c-2.76-1.18-5-2.87-5.76-6-.52-2.11.05-4.16.38-6.22l2.4-14.57a6.51,6.51,0,0,1-.09-1.82c2.58-15.72,5.32-31.42,7.9-47.15a9.37,9.37,0,0,1,1-3.18c2.14-4.24,5.79-5.95,10.33-6q9.38-.1,18.77,0A61.31,61.31,0,0,0,125,105.37a60.87,60.87,0,0,0,20.87-14.29c9.41-9.92,15.48-21.57,17.4-35.23C163.39,55.24,163.22,54.4,164.24,54.34Z" fill="#0084cb"/><path d="M71.87,116.52c-1.34,3.49-1.53,7.22-2.17,10.85-1.73,9.9-3.36,19.82-5,29.73-.56,3.35-1.13,6.69-1.69,10-.32.47,0,1.2-.71,1.51a8.6,8.6,0,0,1-8,4.84c-8.3.05-16.61.08-24.91,0-5.92,0-9.85-4.64-8.9-10.47,2.39-14.66,4.89-29.31,7.35-44q4.17-24.9,8.37-49.8,4.36-25.9,8.72-51.82c.25-1.52.48-3,.79-4.57C46.78,7.61,50,5,55.35,5c18.35,0,36.69,0,55,0,6,0,11.91-.37,17.84.32a41.07,41.07,0,0,1,36,35.42,55.72,55.72,0,0,1-.08,13.35c-1,.23-1.67-.36-2.39-.81A35.83,35.83,0,0,0,142.27,48c-15.8-.11-31.6-.07-47.4,0-3,0-5.92.39-8.43,2.35a12.47,12.47,0,0,0-4.64,8.38c-1.14,7.35-2.51,14.66-3.72,22Q75.4,96.89,72.64,113.1A22.52,22.52,0,0,0,71.87,116.52Z" fill="#002986"/><path d="M71.87,116.52c-.54-2,.32-4,.64-5.91q2.4-14.94,5-29.84c1.44-8.3,2.58-16.65,4.42-24.88a11.39,11.39,0,0,1,8.94-8.16,36.58,36.58,0,0,1,5.91-.36c15.31,0,30.61-.07,45.92,0a36.12,36.12,0,0,1,17.11,4.11c1.47.79,2.88,1.69,4.31,2.55a.29.29,0,0,1,.12.27c-.81.68-.33,1.62-.47,2.43A64.72,64.72,0,0,1,148.7,88.7a64,64,0,0,1-30.06,19.54A62.65,62.65,0,0,1,98.92,111c-5.76-.08-11.52,0-17.27,0C77.35,111,74,112.63,71.87,116.52Z" fill="#00186a"/><path d="M62.27,168.64c.24-.5.47-1,.71-1.51,0,.53.15,1.11-.37,1.51l-.17,0Z" fill="#568ac2"/></svg>