<svg id="Layer_1" data-name="Layer 1" xmlns="http://www.w3.org/2000/svg" viewBox="0 0 195 195"><rect x="2.5" y="2.5" width="190" height="190" rx="20" fill="#3174e0" stroke="#2d69c9" stroke-miterlimit="10" stroke-width="5"/><circle cx="76.07" cy="133.21" r="7.14" fill="#fff"/><circle cx="118.93" cy="133.21" r="7.14" fill="#fff"/><path d="M137.5,86.43a3.84,3.84,0,0,1-.36-.5,9,9,0,0,0-6.57-3.79H69.43A8.92,8.92,0,0,0,62.86,86c-.15.14-.22.29-.36.43a11.72,11.72,0,0,0-1.36,2.86C59.57,94,55.86,105.14,50,122.79v46.42A5.67,5.67,0,0,0,55.57,175h3.14a5.67,5.67,0,0,0,5.58-5.79v-8.5h71.42v8.5a5.63,5.63,0,0,0,5.58,5.79h3.14a5.67,5.67,0,0,0,5.57-5.79V122.79c-5.86-17.58-9.57-28.79-11.14-33.5A11.72,11.72,0,0,0,137.5,86.43Zm-63.71,10h52.42l1.65,4.93,3.07,9.35H69.07Zm61.92,50H64.29V125h71.42v21.43Z" transform="translate(-2.5 -2.5)" fill="#fff"/><path d="M91.64,39.29a21.43,21.43,0,1,0,0,14.28h36.93V67.86h14.29V53.57H150V39.29ZM71.43,53.57a7.14,7.14,0,1,1,7.14-7.14A7.16,7.16,0,0,1,71.43,53.57Z" transform="translate(-2.5 -2.5)" fill="#fff"/></svg>