<svg height="496pt" viewBox="0 -52 496.61632 496" width="496pt" xmlns="http://www.w3.org/2000/svg"><path d="m105.765625 81.90625c-1.203125-.398438-2.402344-.398438-3.601563-.398438-5.601562 0-10.398437 3.601563-12 9.199219-.800781 3.199219-.398437 6.402344 1.199219 9.199219 1.601563 2.800781 4.402344 4.800781 7.601563 6 6.800781 2 13.597656-2 15.597656-8.398438.800781-3.199218.402344-6.398437-1.199219-9.199218-1.597656-3.199219-4.398437-5.199219-7.597656-6.402344zm0 0"/><path d="m173.363281 140.308594c11.199219 0 22-2.800782 31.601563-8.402344 4-2.398438 8.800781-1.199219 11.199218 2.800781 2.398438 4 1.199219 8.800781-2.800781 11.199219-12 7.203125-26 10.800781-40 10.800781-2.398437 0-4.800781 0-7.199219-.398437"/><path d="m135.363281 127.507812c10.402344 8 23.199219 12.398438 36.402344 12.800782 9.199219-40-15.203125-80.800782-55.601563-92-4-1.199219-8-1.601563-11.601562-2.402344l13.203125 5.601562c-2.402344 4.800782-4 10-5.203125 15.601563 6.800781 2.398437 12.402344 6.796875 16 13.199219 3.601562 6.800781 4.800781 14.398437 2.800781 21.597656-3.597656 12.800781-15.199219 20.800781-28 20.800781-2.398437 0-5.199219-.398437-8-1.199219-7.597656-2-13.597656-6.800781-17.597656-13.601562-3.601563-6.796875-4.800781-14.398438-2.800781-21.597656 2.800781-10.402344 11.199218-17.601563 20.800781-20 1.199219-7.199219 3.199219-14 6.398437-20.800782-16-1.601562-31.601562 1.601563-46 9.601563-18.398437 10.398437-31.601562 26.796875-37.601562 47.199219-9.199219 30.800781.800781 62.800781 24.800781 82 1.199219 1.199218 1.601563 2.800781 1.199219 4l-16 61.199218c0 1.199219 0 2 .402344 2.800782l9.199218 20.800781c.800782 2 0 4-1.601562 5.199219l-15.199219 10c-1.597656 1.199218-2.398437 3.199218-1.597656 5.199218l7.597656 16c.800781 2 .402344 4-1.597656 5.199219l-14.800781 9.601563c-1.601563 1.199218-2.402344 3.199218-1.601563 5.199218l7.601563 16c.800781 2 0 4.398438-1.601563 5.199219l-13.199219 7.199219c-2 1.203125-2.800781 3.601562-1.601562 5.601562l14.800781 26.800782c.402344.800781 1.601563 1.597656 2.402344 2h1.199219c.800781 0 1.597656 0 2-.402344l30.800781-18c.796875-.398438 1.597656-1.199219 2-2.398438l47.597656-163.601562c.402344-1.597656 1.601563-2.796875 3.199219-2.796875 25.601562-3.601563 49.203125-22.800781 60.800781-48.402344-14.800781-1.199219-29.199219-6.800781-41.199219-16-3.601562-2.800781-4.398437-8-1.601562-11.597656 4-3.601563 9.203125-4.402344 12.800781-1.601563zm0 0"/><path d="m101.765625 45.109375c12.796875-26.402344 40.398437-44.800781 71.597656-44.800781 36.800781 0 69.199219 26 77.199219 61.199218.800781 4.398438-2 8.800782-6.398438 9.601563-4.398437.796875-8.800781-2-10-6.402344-6.398437-28-32-48.398437-61.199218-48.398437-24.402344 0-46 14-56.402344 34.800781"/><path d="m494.164062 213.90625-140.398437-138.796875c-3.203125-3.203125-12-10.402344-22.402344-10.800781l-90.800781-8.402344c-.398438 0-.398438 0-.796875 0h-2c-9.601563 0-17.601563 3.601562-24.800781 10.800781-7.601563 7.601563-10.800782 15.601563-10.800782 26.800781v.800782l8 90c0 10.398437 7.601563 18.800781 10.800782 22l140.398437 138.800781c1.601563 1.597656 3.601563 2.398437 6 2.398437 2.402344 0 4.402344-.800781 6-2.398437l121.199219-119.601563c2.800781-3.199218 2.800781-8.398437-.398438-11.601562zm-189.199218-9.597656c-2 0-4.402344-.800782-6-2.402344-3.199219-3.199219-3.199219-8.398438 0-11.597656l40-39.601563c3.199218-3.199219 8.398437-3.199219 11.597656 0 3.203125 3.199219 3.203125 8.402344 0 11.601563l-40 39.597656c-1.597656 1.601562-3.597656 2.402344-5.597656 2.402344zm92.398437 4-40 39.597656c-1.597656 1.601562-3.597656 2.402344-6 2.402344-2.398437 0-4.398437-.800782-6-2.402344-3.199219-3.199219-3.199219-8.398438 0-11.597656l40-39.601563c3.199219-3.199219 8.402344-3.199219 11.601563 0 3.597656 3.199219 3.597656 8.402344.398437 11.601563zm0 0"/></svg>