<svg id="Layer_1" data-name="Layer 1" xmlns="http://www.w3.org/2000/svg" viewBox="0 0 200 200"><g id="Dp2NTe.tif"><path d="M34.1,114.92,17.17,98C13.48,94.32,9.81,90.61,6.09,87a10.92,10.92,0,0,1-3.24-5.82c0-.15,0-.35-.21-.4v-.16a5.71,5.71,0,0,0,0-2.18v-.17c.32-.12.21-.43.26-.65a10.39,10.39,0,0,1,3-5.33Q26.58,51.56,47.28,30.85c1.27-1.27,2.52-2.54,3.79-3.79a10.06,10.06,0,0,1,14.3,0L102.1,63.82l9.65,9.67a.28.28,0,0,1,0,.22A47.13,47.13,0,0,1,107.56,78a.6.6,0,0,1-.23,0c-1.51-1.28-2.82-2.78-4.25-4.15a7.94,7.94,0,0,0-.73-.69,1.63,1.63,0,0,0-2.2.16,1.54,1.54,0,0,0-.15,2.19,24.28,24.28,0,0,0,1.8,1.86,23.45,23.45,0,0,1,2.94,3.2.49.49,0,0,1,0,.24A62.28,62.28,0,0,1,99.48,86a.48.48,0,0,1-.24-.06,18.74,18.74,0,0,1-2.45-2.51c-4.33-4.32-8.61-8.68-13-13a23.27,23.27,0,0,0-13.09-6.43,23.84,23.84,0,0,0-10.35.67,3.92,3.92,0,0,0-1.3.55,1.58,1.58,0,0,0-.61,1.92,1.69,1.69,0,0,0,1.81,1.06A7.22,7.22,0,0,0,61.49,68,20.72,20.72,0,0,1,80.76,72.3c1.67,1.38,3,3.08,4.53,4.58,3.87,3.79,7.63,7.67,11.51,11.45a.4.4,0,0,1,.08.23,1,1,0,0,1-.37.54q-2.3,2.31-4.6,4.6a1.08,1.08,0,0,1-.47.34.39.39,0,0,1-.23-.07C87.4,90.08,83.5,86.28,79.68,82.4,78.29,81,77,79.48,75.49,78.19a13.05,13.05,0,0,0-16.26-.46,13.06,13.06,0,0,0-1.46,19.52c2.55,2.63,5.16,5.18,7.75,7.77a20,20,0,0,1,1.55,1.64,2.3,2.3,0,0,0,.93.7,1.76,1.76,0,0,0,2-.46,1.65,1.65,0,0,0,.08-2,5.35,5.35,0,0,0-.67-.75c-2.61-2.6-5.24-5.18-7.81-7.83a17.81,17.81,0,0,1-2.84-3.39A9.59,9.59,0,0,1,65.32,78.7,9.35,9.35,0,0,1,74,81.47q5.43,5.36,10.78,10.79c1.34,1.37,2.61,2.82,4,4.13a.39.39,0,0,1,.07.23,2.93,2.93,0,0,1-.85,1c-1.22,1.25-2.46,2.48-3.7,3.71-.25.24-.46.56-.87.59a9.41,9.41,0,0,1-2.57-2.34c-.27-.27-.5-.6-.78-.87L68.65,87.28a2.12,2.12,0,0,0-1.49-.82A1.68,1.68,0,0,0,65.61,89a6.24,6.24,0,0,0,1,1.22q6.72,6.7,13.43,13.43a4,4,0,0,1,.72.81.39.39,0,0,1,0,.24,2.76,2.76,0,0,1-.64.76L73.67,112a9.51,9.51,0,0,1-1.07.93,27.2,27.2,0,0,1-5.18,3.93c-.31.17-.6.41-1,.32A17.63,17.63,0,0,1,64,114.82c-2.73-3-5.73-5.79-8.57-8.72-1.51-1.56-3.15-3-4.53-4.69A20.47,20.47,0,0,1,46.32,90.8a20.76,20.76,0,0,1,3.23-14.14c.68-1.06.62-2-.12-2.65s-1.83-.49-2.58.55a21.27,21.27,0,0,0-2.94,6,24.2,24.2,0,0,0,.64,16.87,22.76,22.76,0,0,0,4.41,7c4.25,4.58,8.81,8.86,13.18,13.34.31.32.79.57.72,1.15a1,1,0,0,1-.62.4,27.69,27.69,0,0,1-7.84,1.65.67.67,0,0,1-.24,0q-4.77-4.69-9.48-9.47a37.74,37.74,0,0,1-4.51-5.49,31.87,31.87,0,0,1-5.1-13.86,31.49,31.49,0,0,1,2.22-16.31A32.24,32.24,0,0,1,80.05,58.62a31.43,31.43,0,0,1,9.52,6.43c1.05,1,2.1,1.14,2.86.33S93,63.53,92,62.53a35.66,35.66,0,0,0-17.7-9.31A35.26,35.26,0,0,0,51.56,56a34.41,34.41,0,0,0-10.08,7.24,35.83,35.83,0,0,0-5,43.23,33.09,33.09,0,0,0,5.29,6.78q3.1,3.06,6.16,6.17c.34.34.81.62.81,1.2a.87.87,0,0,1-.72.11,31.05,31.05,0,0,1-12.68-4.86C34.9,115.61,34.57,115.16,34.1,114.92Z" fill="#005aa8"/><path d="M197.36,95l-1.19,3.18c-.58-.27-.22-.68-.1-1a9.47,9.47,0,0,0,.37-5.19,13.76,13.76,0,0,0-.71-2.14c-.09-.24-.35-.55.11-.74a11.15,11.15,0,0,1,1.33,3.61c0,.15,0,.35.19.41v.17a1.68,1.68,0,0,0,0,1.17Z" fill="#ec1b23"/><path d="M108.71,175.91h-2.34l-.05-.13a.37.37,0,0,1,.19-.18,6.7,6.7,0,0,1,1.95,0,.66.66,0,0,1,.24.11A.17.17,0,0,1,108.71,175.91Z" fill="#f8b6b8"/><path d="M2.64,78.39a3,3,0,0,1,0,2.18Z" fill="#92b8da"/><path d="M197.36,94.47a1,1,0,0,1,0-1.17Z" fill="#f8b2b5"/><path d="M106.37,175.77v.14h-.84v-.15A.54.54,0,0,1,106.37,175.77Z" fill="#fad6d8"/><path d="M108.71,175.91v-.14a.54.54,0,0,1,.85,0,.76.76,0,0,0,0,.15Z" fill="#fad5d6"/><path d="M109.56,175.76h-.85v-.06a9.64,9.64,0,0,0-2.34,0v.06h-.84a30.51,30.51,0,0,1-18.75-8.13c-.14-.13-.27-.28-.4-.42-.15-.41-.55-.61-.84-.89q-12.87-12.9-25.75-25.77l-.12-.11c-.2-.28-.69-.46-.51-.86s.6-.2.92-.19a19.65,19.65,0,0,0,6-.79c.31-.08.68-.07.87-.41A29.9,29.9,0,0,0,78.71,130a.53.53,0,0,0,.37-.18c1.52-1.55,3.14-3,4.65-4.56a.44.44,0,0,0,.14-.29c2.07-2.11,4.15-4.21,6.34-6.2.89-.8,1.72-1.67,2.58-2.51a27.75,27.75,0,0,0,4.15-4l6.74-6.68a10.53,10.53,0,0,0,2.09-1.84,9.26,9.26,0,0,0,1.72-1.87l6.08-6a8.15,8.15,0,0,0,1.9-1.71,28.36,28.36,0,0,0,3.43-3.5l4.72-4.68a.57.57,0,0,0,.37-.18c1.58-1.6,3.25-3.11,4.81-4.73a.56.56,0,0,0,.16-.29l8.4-8.37a8.38,8.38,0,0,0,1.87-1.64,11.44,11.44,0,0,0,2.11-2.23l6.41-6.35a6.94,6.94,0,0,0,1.79-1.58,15.3,15.3,0,0,0,2.53-2.62c2.9-3.26,6.68-4.18,10.16-2.48a2.89,2.89,0,0,1,1.32,1c.06.33.35.49.56.7q15,15,30,30.05c.21.21.37.49.7.57a3.27,3.27,0,0,1,1,1.37c-.16.71.36,1.22.55,1.82a9.44,9.44,0,0,1-.17,6.48c-.09.24-.35.48-.05.75A4.54,4.54,0,0,1,195,100c-1.75,1.81-3.54,3.58-5.31,5.37A8.52,8.52,0,0,0,188,107c-.82.79-1.62,1.61-2.42,2.42-.19.19-.47.33-.46.66q-3.22,3.47-6.64,6.74c-.19,0-.29.16-.41.27l-5.18,5.19c-.15.14-.37.26-.33.53-1.75,1.93-3.6,3.77-5.48,5.58a35.25,35.25,0,0,0-3.3,3.17c-.41.4-.93.71-1.12,1.3-2.26,2.43-4.6,4.78-7,7.09-.25,0-.37.23-.52.38l-4.34,4.34c-.17.17-.42.3-.4.59-1.91,2.11-3.94,4.1-6,6.09a9,9,0,0,0-1.94,1.8c-1.84,1.93-3.81,3.72-5.66,5.65-.2.2-.52.34-.5.71a31.83,31.83,0,0,1-3.13,3.23c-.41.11-.61.47-.88.74-1.28,1.25-2.54,2.52-3.79,3.79-.19.19-.46.33-.51.64a29.61,29.61,0,0,1-13,7A33.49,33.49,0,0,1,109.56,175.76Z" fill="#ec1c24"/><path d="M88.74,96.63a.49.49,0,0,0,0-.12A9.35,9.35,0,0,1,91.32,94h.12A6,6,0,0,0,92.9,92.6c1.3-1.34,2.72-2.55,3.89-4a.49.49,0,0,0,0-.12,9.31,9.31,0,0,1,2.55-2.57l.13,0c.46-.17.71-.59,1-.91,1.23-1.2,2.43-2.41,3.64-3.63.18-.19.46-.32.47-.64a1,1,0,0,0,0-.14,12.06,12.06,0,0,1,2.72-2.71l.13,0c.54-.2.83-.7,1.22-1.08,1.06-1,2.08-2.07,3.12-3.11l14.51-14.51c.24-.25.6-.44.6-.86,4-4.35,8-8.72,12.11-13a8.34,8.34,0,0,1,6-2.72,2,2,0,0,0,1.35,0A8.37,8.37,0,0,1,152.15,45a32.83,32.83,0,0,0,3.06,3.18,3.16,3.16,0,0,0,1.11,1l.36.36c.29.62.9,1,1.31,1.47.18.22.51.35.5.77-.52.08-1,0-1.52,0,.27.07.61-.13.9.12a12.5,12.5,0,0,0-6.1,2.44,6,6,0,0,0-2,1.9c-1.82,1.86-3.65,3.72-5.58,5.46h-.09a54.17,54.17,0,0,0-4.89,4.93c-1.59,1.64-3.2,3.27-4.91,4.8-.23,0-.35.15-.48.28l-6.58,6.57c-.11.12-.26.22-.25.42a26.44,26.44,0,0,1-2.91,2.79c-.19-.05-.3.09-.42.21-1.27,1.31-2.62,2.55-3.85,3.91-.8.88-1.75,1.61-2.55,2.49-.19.2-.46.33-.49.65-1.54,1.59-3.09,3.17-4.75,4.63-.2,0-.31.1-.43.22-2,2-3.94,3.94-5.91,5.91a.46.46,0,0,0-.15.29c-1.71,1.75-3.43,3.5-5.24,5.14-.24,0-.35.14-.48.28-1.54,1.54-3.1,3.08-4.63,4.62a.56.56,0,0,0-.21.35c-2.77,2.87-5.68,5.59-8.59,8.32-.2,0-.31.11-.42.22l-4.08,4.07a.46.46,0,0,0-.15.29c-3.16,3.07-6,6.45-9.53,9.14a18.47,18.47,0,0,1-12.08,4.22,15.61,15.61,0,0,1-5.67-1.28,2.39,2.39,0,0,1-.76-.52l-9.87-9.9a13.79,13.79,0,0,0-2.11-2.34c-1.08-1.2-2.27-2.3-3.42-3.45-.1-.09-.19-.2-.35-.2l-3.88-3.89c.33-.08.49.21.71.35a30.13,30.13,0,0,0,13.88,5.31c.85-.33,1.7.08,2.55,0,.71,0,1.42,0,2.13,0a1.22,1.22,0,0,1,.74.2,27.36,27.36,0,0,0,8.69-1.95,18.63,18.63,0,0,1,3.72-1.69,32.41,32.41,0,0,0,6-4.33,1,1,0,0,0,.56-.35l7.4-7.4a.46.46,0,0,0,.19-.35l0-.13a10.12,10.12,0,0,1,2.62-2.6c.19,0,.31-.07.43-.19l4.83-4.83A.46.46,0,0,0,88.74,96.63Z" fill="#ec1c24"/><path d="M67,138.19c.44.08.2.22,0,.27a30.81,30.81,0,0,1-3.79.93c-1.3.2-2.6.11-3.89.18l-.22.26a4.53,4.53,0,0,1,.8.55q13.07,13,26.1,26.1c.18.19.66.27.43.73a2.68,2.68,0,0,1-.85-.65Q72.3,153.32,59.05,140.08c-.29-.3-.56-.61-1-1.07A20,20,0,0,0,67,138.19Z" fill="#ec1a22"/><path d="M194.86,87.74c-.45.19-.55-.27-.74-.46l-24-24C168,61.22,166,59.14,163.87,57c-.16-.15-.55-.24-.32-.61.92.89,1.84,1.78,2.75,2.69l27.84,27.82C194.39,87.19,194.62,87.47,194.86,87.74Z" fill="#eb131b"/><path d="M127,58.28c.3.24,0,.39-.11.53L112,73.61a.67.67,0,0,1-.14.09.14.14,0,0,1-.23,0l.08-.18,6.87-6.83Q122.81,62.47,127,58.28Z" fill="#ec121b"/><path d="M116.81,88.8c-.28-.28.06-.38.18-.5q3.26-3.27,6.54-6.54c.15-.14.27-.48.59-.22q-3.44,3.45-6.88,6.88C117.11,88.56,117,88.67,116.81,88.8Z" fill="#ec1a22"/><path d="M127,78.75c-.27-.29.07-.38.18-.5q3.26-3.28,6.53-6.53c.15-.15.28-.49.6-.24q-3.32,3.33-6.64,6.65C127.49,78.35,127.25,78.54,127,78.75Z" fill="#eb131c"/><path d="M38,118.81c.24-.27.34,0,.44.14,1.77,1.75,3.52,3.5,5.27,5.27.14.14.5.28.17.58C41.81,122.9,39.94,120.81,38,118.81Z" fill="#ec131b"/><path d="M105.57,99.85c-.26-.28.08-.37.2-.49q2.83-2.86,5.69-5.7c.15-.15.27-.48.6-.23C109.84,95.52,107.85,97.83,105.57,99.85Z" fill="#ec151e"/><path d="M129,80.72c.25.25-.05.34-.16.44q-2.28,2.31-4.59,4.59c-.14.15-.28.5-.59.17C125.27,84.05,127.18,82.45,129,80.72Z" fill="#eb131c"/><path d="M83.87,125c.27.24,0,.34-.14.44q-2.2,2.23-4.43,4.43c-.15.15-.29.5-.59.16C80.35,128.22,82.13,126.6,83.87,125Z" fill="#ec1820"/><path d="M118.9,90.6c.26.25,0,.34-.15.45-1.52,1.53-3,3.07-4.59,4.59-.15.14-.29.5-.59.17C115.24,94,117.12,92.34,118.9,90.6Z" fill="#eb121b"/><path d="M95,110.24c-.19-.12-.07-.23,0-.32,1.6-1.61,3.21-3.21,4.82-4.82.13-.13.26-.32.48-.11C98.54,106.73,96.87,108.58,95,110.24Z" fill="#ec131c"/><path d="M96.94,112.21c.24.18,0,.29-.07.39-1.18,1.18-2.36,2.37-3.55,3.55-.14.14-.3.4-.53.09C94.1,114.83,95.53,113.53,96.94,112.21Z" fill="#ec161e"/><path d="M152.07,57.93c.24.17,0,.28-.07.38L148.28,62c-.14.14-.29.41-.53.11C149.1,60.64,150.62,59.32,152.07,57.93Z" fill="#ec131c"/><path d="M139.25,66.68c-.19-.13-.07-.23,0-.33l4.53-4.53c.12-.12.26-.23.43-.07C142.57,63.4,141,65.12,139.25,66.68Z" fill="#eb121b"/><path d="M81.77,123.14c-.19-.12-.07-.23,0-.33l4.13-4.13c.13-.13.26-.32.49-.12C84.82,120,83.43,121.73,81.77,123.14Z" fill="#ec151d"/><path d="M141.34,68.48c.24.18,0,.29-.07.39-1.12,1.12-2.24,2.25-3.37,3.37-.14.14-.29.41-.54.11C138.62,71,140,69.75,141.34,68.48Z" fill="#ec131b"/><path d="M107.49,101.82c.24.17,0,.28-.06.38q-1.61,1.62-3.22,3.22c-.14.14-.28.4-.53.11Z" fill="#ec131b"/><path d="M156.32,49.19c-.11.19-.22.09-.32,0l-3.83-3.83c-.1-.1-.21-.21,0-.32C153.6,46.36,155,47.75,156.32,49.19Z" fill="#eb141c"/><path d="M157.87,52l-.89-.07v-.12h1.57c-.64-.65-1.15-1.14-1.61-1.66-.12-.14-.55-.2-.26-.55l2.23,2.4Z" fill="#ec151d"/><path d="M149.81,56.29c.05-.77.8-1,1.2-1.48.17-.21.31-.66.76-.42Z" fill="#eb1119"/><path d="M146.42,42.52a1.25,1.25,0,0,1-1.35,0A3.61,3.61,0,0,1,146.42,42.52Z" fill="#eb0b13"/><path d="M54.11,120.74l-.7,0a6.59,6.59,0,0,0-2.17,0,9,9,0,0,1-2.54-.19c-2.46-2.48-4.93-4.94-7.36-7.44A35.26,35.26,0,0,1,31.8,94.72a32.3,32.3,0,0,1-.64-7.13,36,36,0,0,1,8-22,35.58,35.58,0,0,1,13-10.12,36.3,36.3,0,0,1,10.48-3A35.53,35.53,0,0,1,78.17,54a33.65,33.65,0,0,1,11.59,6.33c.89.76,1.78,1.52,2.62,2.33a2,2,0,0,1,.21,2.9,2,2,0,0,1-3-.18A31.65,31.65,0,0,0,74.73,57a30.37,30.37,0,0,0-9.1-.91A32.1,32.1,0,0,0,36.79,98.58a31.14,31.14,0,0,0,6.85,11.36c3.2,3.43,6.6,6.66,9.87,10C53.74,120.19,54.05,120.37,54.11,120.74Z" fill="#009cd9"/><path d="M91.32,94l-2.57,2.56a16.37,16.37,0,0,1-3-2.8c-1.88-2.06-3.91-4-5.87-6s-4-4.1-6.09-6.11a9.07,9.07,0,0,0-9.51-2.46,9.35,9.35,0,0,0-4.08,15.37c3.1,3.33,6.4,6.46,9.58,9.71,1,1,1.07,2.11.23,3a2.1,2.1,0,0,1-3-.22c-3-3.22-6.16-6.23-9.23-9.35a13.39,13.39,0,0,1-3.93-8.45A13.17,13.17,0,0,1,65.48,75a12.88,12.88,0,0,1,11,3.83L90.9,93.34A1.13,1.13,0,0,1,91.32,94Z" fill="#009cd9"/><path d="M66.52,117.1a14.88,14.88,0,0,1-3.72,1.69c-1.27-1.48-2.72-2.8-4.09-4.19q-4.1-4.14-8.22-8.24A25.43,25.43,0,0,1,43.67,95.6a24.17,24.17,0,0,1,3-21.08c.77-1.2,1.8-1.46,2.83-.79a2,2,0,0,1,.38,2.89A20.7,20.7,0,0,0,50.13,100a25.79,25.79,0,0,0,2.94,3.41q5,5,9.94,10C64.21,114.6,65.35,115.86,66.52,117.1Z" fill="#009cd9"/><path d="M99.35,85.91,96.8,88.47c-.31,0-.47-.27-.67-.46-4.22-4.23-8.5-8.41-12.64-12.71a27.43,27.43,0,0,0-6.7-5.46,20.5,20.5,0,0,0-8-2.36,22.17,22.17,0,0,0-8.14.94,1.91,1.91,0,1,1-1.07-3.66A24.76,24.76,0,0,1,66,63.61,24.1,24.1,0,0,1,78.7,66.49a21.63,21.63,0,0,1,5.2,3.76Q90.62,77,97.33,83.71C98,84.41,98.68,85.17,99.35,85.91Z" fill="#009cd9"/><path d="M83.39,102l-2.68,2.56L71.1,95c-1.7-1.69-3.4-3.39-5.08-5.1-1-1-1.16-2.12-.43-3a1.92,1.92,0,0,1,2.94,0c3.53,3.53,7,7.09,10.6,10.6,1.44,1.43,2.7,3,4.28,4.34,0,0,.06.08,0,.11S83.41,102,83.39,102Z" fill="#009cd9"/><path d="M107.39,77.86a25.77,25.77,0,0,1-2.72,2.71c-1.59-1.63-3.21-3.24-4.78-4.89A1.9,1.9,0,0,1,102.57,73C104.2,74.61,105.78,76.24,107.39,77.86Z" fill="#009cd9"/><path d="M80.68,104.67c.27.29-.07.38-.19.5q-3.66,3.69-7.37,7.37c-.14.15-.26.49-.59.23C75.23,110.05,77.89,107.29,80.68,104.67Z" fill="#f81a1e"/><path d="M96.79,88.6c.22.19,0,.28-.1.38q-2.43,2.44-4.87,4.87c-.09.09-.19.31-.38.09A74.87,74.87,0,0,1,96.79,88.6Z" fill="#f81a1e"/><path d="M83.39,102s0-.1,0-.16l4.64-4.59c.22-.21.46-.4.69-.6.23.19,0,.29-.09.39q-2.43,2.45-4.87,4.87C83.68,102,83.58,102.21,83.39,102Z" fill="#f81a1e"/><path d="M104.63,80.71c.25.16.06.27,0,.38l-4.77,4.78c-.1.1-.21.21-.33,0C101.12,84.08,102.87,82.39,104.63,80.71Z" fill="#f81a1e"/><path d="M111.67,73.67l.23,0-4.06,4.14c-.1.1-.22.18-.32,0C108.84,76.39,110.24,75,111.67,73.67Z" fill="#f71a1e"/><path d="M136.33,159.48c-.25-.27,0-.4.16-.54l7.55-7.55c.1-.1.21-.31.39-.07-2.37,2.62-5,5-7.47,7.5Z" fill="#ec1922"/><path d="M172.52,122.78c-.24-.27,0-.4.17-.54q2.67-2.68,5.36-5.36c.1-.1.2-.32.39-.09-1.63,1.87-3.51,3.49-5.23,5.27Z" fill="#ec141d"/><path d="M150.39,145.23c-.22-.27,0-.39.18-.53,1.54-1.56,3.09-3.1,4.64-4.64.11-.11.2-.41.44-.14C154,141.81,152.09,143.41,150.39,145.23Z" fill="#ec141c"/><path d="M128,167.88c-.23-.18,0-.28.08-.38q2.35-2.37,4.71-4.71c.1-.1.21-.31.39-.08C131.57,164.53,129.76,166.17,128,167.88Z" fill="#ec111a"/><path d="M185.08,110.05c-.2-.23,0-.36.12-.49l4.08-4.08c.1-.09.21-.31.39-.08C188.24,107.06,186.57,108.46,185.08,110.05Z" fill="#ec131b"/><path d="M162.62,132.83c-.2-.22,0-.35.13-.48l4-4c.1-.09.21-.22.33,0C165.68,130,164.06,131.31,162.62,132.83Z" fill="#eb121b"/><path d="M106.37,175.71a4.23,4.23,0,0,1,2.34,0Z" fill="#eb0a14"/><path d="M51.24,120.77a3.17,3.17,0,0,1,2.17,0A12.1,12.1,0,0,1,51.24,120.77Z" fill="#00a7e6"/></g></svg>