<svg id="Layer_1" data-name="Layer 1" xmlns="http://www.w3.org/2000/svg" viewBox="0 0 195 195"><rect x="2.5" y="2.5" width="190" height="190" rx="20" fill="#3174e0" stroke="#2d69c9" stroke-miterlimit="10" stroke-width="5"/><path d="M100,31.16c-32,0-58,3.63-58,29v72.46a21.63,21.63,0,0,0,7.25,16.08v12.9a7.27,7.27,0,0,0,7.24,7.25h7.25A7.27,7.27,0,0,0,71,161.59v-7.24h58v7.24a7.27,7.27,0,0,0,7.25,7.25h7.25a7.27,7.27,0,0,0,7.24-7.25v-12.9A21.63,21.63,0,0,0,158,132.61V60.15C158,34.79,132,31.16,100,31.16Zm41,21.67H59c4-3.84,14.27-7.18,41-7.18S137,49,141,52.83Zm2.47,14.49V89.13h-87V67.32ZM141,137.9l-2.1,1.95H61.09L59,137.9a7,7,0,0,1-2.47-5.29v-29h87v29A7,7,0,0,1,141,137.9Z" transform="translate(-2.5 -2.5)" fill="#fff"/><circle cx="72.14" cy="119.24" r="10.87" fill="#fff"/><circle cx="122.86" cy="119.24" r="10.87" fill="#fff"/></svg>