<svg id="Layer_1" data-name="Layer 1" xmlns="http://www.w3.org/2000/svg" xmlns:xlink="http://www.w3.org/1999/xlink" viewBox="0 0 95 95"><defs><linearGradient id="linear-gradient" x1="7.24" y1="27.57" x2="88.44" y2="67.76" gradientUnits="userSpaceOnUse"><stop offset="0" stop-color="#f57401"/><stop offset="1" stop-color="#f4c400"/></linearGradient><clipPath id="clip-path"><rect width="95" height="95" fill="none"/></clipPath></defs><rect width="95" height="95" fill="url(#linear-gradient)"/><g clip-path="url(#clip-path)"><path d="M-6,59S11.52,86.87,38.68,89.1c21.88,1.8,43.14-19.23,48.56-27.91,6.51-10.42,11.35-24.74,17.67-27.35S110-1,110-1L-17.23-1.32Z" fill="#fff" opacity="0.1"/><path d="M-5.88,33.47s16.15,36.1,48.56,35.16C62,68.08,77.2,54.84,86.22,34.4c8.37-19,26.32-36.56,26.32-36.56L-8.3-3Z" fill="#fff" opacity="0.1"/><path d="M-1.13,3.89S13.2,44.15,43.7,43.15C66.22,42.4,74,16.91,74,16.91s9.86-28.46,25.3-21.58S-4.11-4.11-4.11-4.11Z" fill="#fff" opacity="0.1"/></g></svg>