<svg id="Layer_1" data-name="Layer 1" xmlns="http://www.w3.org/2000/svg" viewBox="0 0 400 400"><path d="M70.25,157.32a5.61,5.61,0,0,1,1.28-.68,9,9,0,0,1,2.35-.47,3.62,3.62,0,0,1,2.09.77,36.48,36.48,0,0,1,4,2.64,4,4,0,0,1,.6.56,5.46,5.46,0,0,1,1.11,3.8c0,.55.25-.56,0,.72s-.43,5.72-1.07,6.06l-2.69,1.54a1.92,1.92,0,0,1-1,.31,2,2,0,0,1-1-.31,50.5,50.5,0,0,1-5.21-3.2A44.83,44.83,0,0,1,70.25,157.32Z" fill="#7a848e"/><path d="M30.18,267.46S11.62,280.26,7.7,282.22s23,21.93,43.61,33.2,44.2,30.21,84.61,24.58c14.21-2.05,46-18.05,81.54-38.15,65.25-36.83,143.08-87.31,148.2-90.12,7.89-4.27,43.18-23.56,29.87-38.75S316,135.73,316,135.73Z" fill="#090327"/><path d="M337.71,181.18,320.64,170s-29.31-13.44-13.14-22.32,18.9-18.52,27.57-9.34S340.87,176.52,337.71,181.18Z" fill="#362725"/><path d="M330.5,166.33,317,190.14l-2.05,3.67L300,216.12l-14.12-8.19-1.79-1.07a14.9,14.9,0,0,1-5.38-12.8,29.28,29.28,0,0,1,.43-5,45.46,45.46,0,0,1,6.61-16.86,40.68,40.68,0,0,1,13.66-13.82,15.56,15.56,0,0,1,6.45-2.6,15.81,15.81,0,0,1,6.94.46l2.09,1.33C320.51,160.78,330.5,166.33,330.5,166.33Z" fill="#260e08"/><path d="M319.15,191.33l-4.27,2.48-13.7,7.89L279,188.9A45.46,45.46,0,0,1,285.65,172l31.28,18.1Z" fill="#260e08"/><path d="M303.36,160.52c6.19-3.54,11.69-3.67,15.49-.93l.64.42a15,15,0,0,0-14,1.79,45.77,45.77,0,0,0-20.74,35.76,14.9,14.9,0,0,0,5.34,12.8l-1.33-.76a14.46,14.46,0,0,1-4.84-5.81,14.21,14.21,0,0,1-1.21-7.47,45.68,45.68,0,0,1,20.69-35.8Z" fill="#260e08"/><path d="M307.12,162.7c6.14-3.54,11.69-3.67,15.48-.94l.64.43a15,15,0,0,0-14,1.79,45.73,45.73,0,0,0-20.74,35.76,14.86,14.86,0,0,0,5.33,12.8l-1.32-.73a14.43,14.43,0,0,1-6.06-13.31,45.62,45.62,0,0,1,20.7-35.8Z" fill="#260e08"/><path d="M310.87,165.05c6.15-3.55,11.69-3.67,15.49-.94l.64.42a15,15,0,0,0-14,1.8,45.73,45.73,0,0,0-20.74,35.75,14.89,14.89,0,0,0,1.09,7.07,14.7,14.7,0,0,0,4.25,5.74l-1.32-.73a14.38,14.38,0,0,1-6.06-13.31,45.64,45.64,0,0,1,20.69-35.8Z" fill="#260e08"/><path d="M335.79,179.17a45.59,45.59,0,0,1-20.74,35.72c-11.43,6.61-20.69,1.32-20.69-11.82a45.68,45.68,0,0,1,20.69-35.72C326.53,160.78,335.79,166,335.79,179.17Z" fill="#3f261a"/><path d="M334,180.28a41.35,41.35,0,0,1-18.73,32.35c-10.37,6-18.78,1.19-18.78-10.72a41.33,41.33,0,0,1,18.78-32.34C325.64,163.6,334,168.38,334,180.28Z" fill="#5b4a44"/><path d="M332.08,181.39a37,37,0,0,1-16.81,29c-9.31,5.37-16.86,1.11-16.86-9.6a37.08,37.08,0,0,1,16.86-29C324.57,166.41,332.08,170.72,332.08,181.39Z" fill="#3f261a"/><path d="M331.14,182.11a35.11,35.11,0,0,1-15.87,27.4c-8.79,5-15.88,1-15.88-9.09a34.86,34.86,0,0,1,15.88-27.35C324,167.82,331.14,171.87,331.14,182.11Z" fill="#141b22"/><path d="M330.2,182.46a24.63,24.63,0,0,1-1,6.87A32.46,32.46,0,0,1,327,195a33.16,33.16,0,0,1-9.47,11.74c-.72.54-1.46,1-2.22,1.49a19.7,19.7,0,0,1-2.26,1.11,8.87,8.87,0,0,1-9.44-.81,8.06,8.06,0,0,1-2.21-3.16,14,14,0,0,1-1.07-5.67,24.63,24.63,0,0,1,1.07-6.87,30.08,30.08,0,0,1,2.21-5.72A33.44,33.44,0,0,1,313,175.42a26.85,26.85,0,0,1,2.26-1.45,13.94,13.94,0,0,1,2.22-1.11,8.82,8.82,0,0,1,9.47.81,8,8,0,0,1,2.22,3.15A14.14,14.14,0,0,1,330.2,182.46Z" fill="#748388"/><path d="M329.69,182.8a24,24,0,0,1-1,6.57,34.27,34.27,0,0,1-2.18,5.54,31.78,31.78,0,0,1-9.13,11.31,15.71,15.71,0,0,1-2.13,1.41,13.35,13.35,0,0,1-2.18,1.07,7.78,7.78,0,0,1-3.18,1.06,7.8,7.8,0,0,1-8.08-4.86,13.8,13.8,0,0,1-1-5.46,24,24,0,0,1,1-6.62,34.6,34.6,0,0,1,2.17-5.54A32.55,32.55,0,0,1,313.09,176c.71-.51,1.44-1,2.18-1.41a20.18,20.18,0,0,1,2.13-1.07,7.82,7.82,0,0,1,11.31,3.84A14,14,0,0,1,329.69,182.8Z" fill="#b8c0c2"/><path d="M301.57,197.9c0,6.62,3.84,10,9.13,8.79a14.92,14.92,0,0,0,3.63-1.49,28.25,28.25,0,0,0,11.35-14.51l.64-2.05a22.85,22.85,0,0,0,.72-5.46c0-7.89-5.46-11.22-12.29-7.51h-.47a21.88,21.88,0,0,0-3.62,2.73,29.52,29.52,0,0,0-6.15,8.15,30.88,30.88,0,0,0-2.09,5.25A21,21,0,0,0,301.57,197.9Z" fill="#131e24"/><path d="M310.7,178.57v28.29c.64-.25,1.79,1.41,2.52,1s.77-1.75,1.15-2.68a1.48,1.48,0,0,1,.43-.64V175.63h-.47A21.83,21.83,0,0,0,310.7,178.57Z" fill="#3d5259"/><path d="M320.56,185.44a16.78,16.78,0,0,1-7.68,13.27c-4.27,2.48-7.68.52-7.68-4.26a17,17,0,0,1,7.68-13.23C317.14,178.62,320.56,180.58,320.56,185.44Z" fill="#3d5259"/><path d="M325.93,175.07l-3.88,6.15-5.25,6.53-2.05,2.56-2,2.56-2,2.52-5.29,6.52-2.91,2.31c-.85-.73-.25-1.24-.72-2.43l1.58-2.78,5.25-6.53,2.09-2.51,2-2.56,2-2.56,5.25-6.49,2.82-3.67C323.71,175.42,325.47,173.92,325.93,175.07Z" fill="#3d5259"/><path d="M302.46,192h.9l5.25.43h6.19l5.25.42,5.67-2.81,2.3-1.2c0-.59-.93-.76-1.66-.85h-.85l-3.42-.3-5.25-.47H310.7l-5.29-.42h-.85A30.42,30.42,0,0,0,302.46,192Z" fill="#3d5259"/><path d="M317.4,174.35V205.5l-2,1.36a16.77,16.77,0,0,1-2.05,1V176.4a13.1,13.1,0,0,1,2.05-1A15.65,15.65,0,0,1,317.4,174.35Z" fill="#6c7c80"/><path d="M328,177.85l-3.41,4.26-5.25,6.53-2.05,2.56-2,2.52-2,2.56L308,202.81l-3.41,4.27a7.23,7.23,0,0,1-2.05-2.9l3.37-4.27,5.29-6.53,2.05-2.52,2-2.56,2-2.56,5.25-6.49L326,175A8.07,8.07,0,0,1,328,177.85Z" fill="#95a1a4"/><path d="M328,189.45a30.3,30.3,0,0,1-2.09,5.46l-3.41-.29-5.25-.43-2-.21h-4.09l-5.29-.43-3.93-.34a32.15,32.15,0,0,1,2.09-5.29l3.93.34,5.25.47h6.14l5.25.47Z" fill="#95a1a4"/><path d="M322.31,186.08a17.09,17.09,0,0,1-7.73,13.28c-4.26,2.43-7.68.46-7.68-4.27a17.08,17.08,0,0,1,7.68-13.27C318.85,179.26,322.31,181.22,322.31,186.08Z" fill="#95a1a4"/><path d="M323,186.68a17.12,17.12,0,0,1-7.68,13.23c-4.27,2.47-7.69.51-7.69-4.27a17.05,17.05,0,0,1,7.69-13.27C319.49,179.85,323,181.82,323,186.68Z" fill="#d9ddde"/><path d="M319.36,188.73l5.25.47a21.69,21.69,0,0,1-2.05,5.25l-5.25-.43v7a15,15,0,0,1-2,1.4,10.54,10.54,0,0,1-2,.94v-6.95L308,202.9a5.77,5.77,0,0,1-2.09-2.91l5.29-6.52-5.29-.43a23,23,0,0,1,2.09-5.29l5.25.47v-7a13.53,13.53,0,0,1,2-1.45,10.78,10.78,0,0,1,2-.94v7l5.25-6.49a5.2,5.2,0,0,1,2.05,2.86Z" fill="#d1d6d7"/><path d="M321.67,187.45a13.9,13.9,0,0,1-6.32,10.92c-3.5,2-6.36.43-6.36-3.62a14,14,0,0,1,6.36-10.93C318.77,181.82,321.67,183.44,321.67,187.45Z" fill="#56686e"/><path d="M321.16,188a12.45,12.45,0,0,1-5.64,9.73c-3.11,1.79-5.63.39-5.63-3.2a12.41,12.41,0,0,1,5.63-9.73C318.64,183,321.16,184.46,321.16,188Z" fill="#b8c0c2"/><path d="M317.4,189.84a4.88,4.88,0,0,1-.63,2.14,4.68,4.68,0,0,1-1.55,1.61,1.33,1.33,0,0,1-2.17-1.23,4.72,4.72,0,0,1,.64-2.14,4.84,4.84,0,0,1,1.53-1.62C316.46,187.92,317.4,188.47,317.4,189.84Z" fill="#586a70"/><path d="M317.14,190.18a3.5,3.5,0,0,1-.47,1.58,3.63,3.63,0,0,1-1.15,1.19,1,1,0,0,1-1.62-.89,3.62,3.62,0,0,1,.47-1.61,3.8,3.8,0,0,1,1.15-1.21C316.42,188.73,317.14,189.16,317.14,190.18Z" fill="#d9ddde"/><path d="M311.09,194.58c.63-.77,1.4-1,1.74-.47s0,1.49-.46,2.26-1.37,1-1.75.47a2.17,2.17,0,0,1,.47-2.26Z" fill="#748388"/><path d="M314.37,196.79a2.78,2.78,0,0,1,.39-1.25,2.85,2.85,0,0,1,.89-1,.83.83,0,0,1,1.32.77,2.58,2.58,0,0,1-.38,1.24,2.79,2.79,0,0,1-.9.94C315,198,314.37,197.6,314.37,196.79Z" fill="#88959a"/><path d="M311.51,194.92c.6-.77,1.41-1,1.75-.47a2.19,2.19,0,0,1,.09,1.19,2.22,2.22,0,0,1-.56,1.07c-.6.77-1.41,1-1.75.47A2.23,2.23,0,0,1,311,196,2.14,2.14,0,0,1,311.51,194.92Z" fill="#88959a"/><path d="M312.79,189.45c.6,0,.81.86.47,1.75s-1.15,1.58-1.75,1.54-.81-.81-.47-1.75A2.13,2.13,0,0,1,312.79,189.45Z" fill="#88959a"/><path d="M316.93,186a2.79,2.79,0,0,1-.37,1.26,2.89,2.89,0,0,1-.91,1,.8.8,0,0,1-1.28-.73,3,3,0,0,1,.38-1.26,3,3,0,0,1,.9-1C316.38,184.85,316.93,185.19,316.93,186Z" fill="#88959a"/><path d="M319.83,188c-.6.73-1.41.94-1.75.47a2.3,2.3,0,0,1-.09-1.22,2.34,2.34,0,0,1,.56-1.08c.6-.77,1.41-1,1.75-.47a2.27,2.27,0,0,1,.09,1.21A2.24,2.24,0,0,1,319.83,188Z" fill="#88959a"/><path d="M318.55,193.34c-.6,0-.81-.81-.47-1.75a2.13,2.13,0,0,1,1.75-1.54c.6,0,.81.86.47,1.75S319.15,193.38,318.55,193.34Z" fill="#88959a"/><path d="M150.13,295.32l-17.07-11.14s-29.31-13.44-13.14-22.32,18.9-18.47,27.57-9.34S153.29,290.71,150.13,295.32Z" fill="#362725"/><path d="M141.51,278.55,128,302.36,125.89,306,111,328.39l-14.16-8.24-1.79-1a14.93,14.93,0,0,1-5.38-12.8,28.43,28.43,0,0,1,.43-5,45.08,45.08,0,0,1,6.61-16.85,40.85,40.85,0,0,1,13.7-13.87,15.66,15.66,0,0,1,13.4-2.09l2.09,1.32C131.53,273.05,141.51,278.55,141.51,278.55Z" fill="#260e08"/><path d="M130.12,303.6,125.85,306l-13.7,7.89L90,301.12a45.42,45.42,0,0,1,6.61-16.85l31.32,18.05Z" fill="#260e08"/><path d="M114.37,272.79c6.15-3.54,11.65-3.67,15.45-1l.64.42a15.23,15.23,0,0,0-14,1.84,45.64,45.64,0,0,0-20.69,35.71A14.86,14.86,0,0,0,101,322.59l-1.33-.77A14.43,14.43,0,0,1,94.85,316a14.28,14.28,0,0,1-1.21-7.49,45.68,45.68,0,0,1,20.73-35.71Z" fill="#260e08"/><path d="M118.13,275c6.14-3.55,11.65-3.67,15.44-1l.64.43a15.14,15.14,0,0,0-14,1.84A45.62,45.62,0,0,0,99.48,312a14.92,14.92,0,0,0,5.29,12.8l-1.32-.77a14.35,14.35,0,0,1-6.06-13.31A45.62,45.62,0,0,1,118.13,275Z" fill="#260e08"/><path d="M121.88,277.14c6.15-3.54,11.65-3.67,15.45-1l.64.47a15.12,15.12,0,0,0-14,1.79,45.68,45.68,0,0,0-20.69,35.72,14.85,14.85,0,0,0,5.29,12.8l-1.33-.77a14.4,14.4,0,0,1-6-13.31,45.61,45.61,0,0,1,20.73-35.72Z" fill="#260e08"/><path d="M146.72,291.39A45.62,45.62,0,0,1,126,327.15c-11.43,6.57-20.74,1.33-20.74-11.82A45.55,45.55,0,0,1,126,279.62C137.5,273,146.72,278.29,146.72,291.39Z" fill="#3f261a"/><path d="M145,292.55a41.33,41.33,0,0,1-18.78,32.34c-10.36,6-18.73,1.2-18.73-10.71a41.32,41.32,0,0,1,18.73-32.34C136.6,276,145,280.64,145,292.55Z" fill="#5b4a44"/><path d="M143.09,293.66a37.1,37.1,0,0,1-16.85,29c-9.31,5.38-16.82,1.07-16.82-9.6a37,37,0,0,1,16.82-29C135.54,278.68,143.09,283,143.09,293.66Z" fill="#3f261a"/><path d="M142.11,294.21a34.86,34.86,0,0,1-15.88,27.35c-8.74,5.08-15.87,1-15.87-9a35.11,35.11,0,0,1,15.87-27.4C135,280.26,142.11,284.14,142.11,294.21Z" fill="#141b22"/><path d="M141.21,294.72a26.13,26.13,0,0,1-1,6.87,34.36,34.36,0,0,1-2.26,5.72A33.41,33.41,0,0,1,128.5,319a25.76,25.76,0,0,1-2.27,1.46,16.3,16.3,0,0,1-2.21,1.11,8.86,8.86,0,0,1-9.48-.82,8.45,8.45,0,0,1-2.22-3.15,14.14,14.14,0,0,1-1-5.64,24.63,24.63,0,0,1,1-6.87,36.67,36.67,0,0,1,2.22-5.71A33.58,33.58,0,0,1,124,287.68c.71-.53,1.45-1,2.21-1.49a23.81,23.81,0,0,1,2.27-1.11,8.87,8.87,0,0,1,4.83-1,9,9,0,0,1,4.6,1.77,8.58,8.58,0,0,1,2.26,3.16A15.06,15.06,0,0,1,141.21,294.72Z" fill="#748388"/><path d="M140.66,295a24.33,24.33,0,0,1-1,6.62,31.41,31.41,0,0,1-2.18,5.54,32.55,32.55,0,0,1-9.09,11.31l-2.17,1.41A21.35,21.35,0,0,1,124.1,321a8.56,8.56,0,0,1-9.13-.77,8,8,0,0,1-2.13-3,14.23,14.23,0,0,1-1-5.51,24.08,24.08,0,0,1,1-6.57,29.76,29.76,0,0,1,2.13-5.54,32.37,32.37,0,0,1,9.13-11.31,23.23,23.23,0,0,1,2.14-1.41,12.87,12.87,0,0,1,2.17-1.07,8.54,8.54,0,0,1,9.09.77,8.12,8.12,0,0,1,2.18,3A14,14,0,0,1,140.66,295Z" fill="#b8c0c2"/><path d="M112.58,310.13c0,6.61,3.84,10,9.13,8.74a13.17,13.17,0,0,0,3.67-1.49,28.2,28.2,0,0,0,11.35-14.51,20.62,20.62,0,0,0,.64-2.09,20.22,20.22,0,0,0,.77-5.42c0-7.93-5.46-11.22-12.33-7.55l-.43.26a19.88,19.88,0,0,0-3.67,2.73,29,29,0,0,0-6.1,8.15,27.51,27.51,0,0,0-2.13,5.25A22,22,0,0,0,112.58,310.13Z" fill="#131e24"/><path d="M121.67,290.84v28.29c.68-.26,1.83,1.37,2.52,1s.76-1.79,1.15-2.69a1.26,1.26,0,0,1,.43-.64V287.85l-.43.26A19.66,19.66,0,0,0,121.67,290.84Z" fill="#3d5259"/><path d="M131.57,297.71A17.12,17.12,0,0,1,123.89,311c-4.27,2.43-7.73.47-7.73-4.27a17.1,17.1,0,0,1,7.73-13.27C128.11,290.88,131.57,293.06,131.57,297.71Z" fill="#3d5259"/><path d="M136.94,287.34l-3.84,6.14L127.81,300l-2,2.56-2,2.52-2,2.56-5.25,6.74-2.94,2.31c-.86-.73,0-1.24-.73-2.44l1.62-2.77,5.25-6.53,2-2.56,2-2.51,2-2.57L131,290.8l2.86-3.63C134.73,287.68,136.47,286.14,136.94,287.34Z" fill="#3d5259"/><path d="M113.43,304.24h.9l5.29.42h6.15l5.24.47,5.68-2.81,2.35-1.2c0-.6-1-.81-1.71-.89h-.85l-3.37-.26-5.3-.47h-6.14l-5.25-.47h-.85A27.84,27.84,0,0,0,113.43,304.24Z" fill="#3d5259"/><path d="M128.28,286.62v31.1a12.85,12.85,0,0,1-2,1.37,11.11,11.11,0,0,1-2,1V288.79c.68-.51,1.36-.64,2-1.07S127.58,287,128.28,286.62Z" fill="#6c7c80"/><path d="M139,290.24l-3.42,4.27L130.37,301l-2.09,2.52-2,2.56-2,2.56-5.25,6.48-3.42,4.27a8.22,8.22,0,0,1-2-2.9l3.41-4.27,5.25-6.4,2-2.56,2-2.52,2-2.56,5.29-6.53,3.38-4.26A7.84,7.84,0,0,1,139,290.24Z" fill="#95a1a4"/><path d="M139,301.59a32.5,32.5,0,0,1-2.09,5.29l-3.38-.3-5.29-.47h-6.14l-5.25-.46L113,305.3a32.72,32.72,0,0,1,2.05-5.24l3.93.34,5.25.47h6.18l5.25.42Z" fill="#95a1a4"/><path d="M133.28,298.35a17.21,17.21,0,0,1-2.28,7.52,17,17,0,0,1-5.41,5.71c-4.26,2.47-7.68.51-7.68-4.27A17.08,17.08,0,0,1,125.59,294C129.65,291.52,133.28,293.48,133.28,298.35Z" fill="#95a1a4"/><path d="M133.91,298.9a16.75,16.75,0,0,1-7.68,13.28c-4.26,2.47-7.68.51-7.68-4.27a17.12,17.12,0,0,1,7.68-13.23C130.5,292.08,133.91,294,133.91,298.9Z" fill="#d9ddde"/><path d="M130.37,301l5.25.43a22.83,22.83,0,0,1-2.05,5.29l-5.29-.47v7a13.3,13.3,0,0,1-2,1.41,9,9,0,0,1-2,.94v-7l-5.25,6.49a5.48,5.48,0,0,1-2-2.86l5.25-6.4-5.25-.47a23.46,23.46,0,0,1,2-5.25l5.25.47v-7.12a14.24,14.24,0,0,1,2-1.41,10.54,10.54,0,0,1,2-.94v6.95l5.29-6.53a5.74,5.74,0,0,1,2.05,2.91Z" fill="#d1d6d7"/><path d="M132.59,299.71a13.94,13.94,0,0,1-6.36,10.93c-3.49,2-6.31.38-6.31-3.63a13.92,13.92,0,0,1,6.31-10.92C129.65,294,132.59,295.66,132.59,299.71Z" fill="#56686e"/><path d="M132.12,300.27a12.31,12.31,0,0,1-1.65,5.54,12.46,12.46,0,0,1-4,4.19c-3.11,1.79-5.63.34-5.63-3.2a12.41,12.41,0,0,1,5.63-9.73C129.65,295.28,132.12,296.69,132.12,300.27Z" fill="#b8c0c2"/><path d="M128.41,302.1a4.72,4.72,0,0,1-.64,2.14,4.77,4.77,0,0,1-1.54,1.62,1.35,1.35,0,0,1-2.17-1.24,4.79,4.79,0,0,1,2.17-3.75C127.43,300.18,128.41,300.74,128.41,302.1Z" fill="#586a70"/><path d="M128.11,302.4a3.38,3.38,0,0,1-.47,1.61,3.5,3.5,0,0,1-1.15,1.21,1,1,0,0,1-1.62-.94,3.55,3.55,0,0,1,1.62-2.77A1,1,0,0,1,128.11,302.4Z" fill="#d9ddde"/><path d="M122.1,306.84c.59-.77,1.4-1,1.75-.51a2.2,2.2,0,0,1,.08,1.22,2.23,2.23,0,0,1-.55,1.08c-.64.77-1.41,1-1.75.47a2,2,0,0,1,.47-2.26Z" fill="#748388"/><path d="M125.38,309.06a2.68,2.68,0,0,1,.38-1.26,2.76,2.76,0,0,1,.9-1,.8.8,0,0,1,1.28.73,2.72,2.72,0,0,1-.38,1.26,3,3,0,0,1-.9,1C125.94,310.13,125.38,309.87,125.38,309.06Z" fill="#88959a"/><path d="M122.48,307.1c.64-.73,1.41-.94,1.75-.47a2.13,2.13,0,0,1,.12,1.22,2.06,2.06,0,0,1-.59,1.08c-.6.77-1.37,1-1.75.47a2.3,2.3,0,0,1-.09-1.22A2.25,2.25,0,0,1,122.48,307.1Z" fill="#88959a"/><path d="M123.76,301.59c.64,0,.85.81.47,1.75s-1.11,1.58-1.75,1.54-.81-.86-.47-1.75A2.27,2.27,0,0,1,123.76,301.59Z" fill="#88959a"/><path d="M127.94,298.27a2.89,2.89,0,0,1-.38,1.25,3.06,3.06,0,0,1-.9,1,.8.8,0,0,1-1.28-.76,2.75,2.75,0,0,1,.37-1.25,2.7,2.7,0,0,1,.91-.93C127.35,297.33,127.94,297.33,127.94,298.27Z" fill="#88959a"/><path d="M130.8,300.18c-.6.77-1.37,1-1.75.47a2.23,2.23,0,0,1-.09-1.2,2.18,2.18,0,0,1,.56-1.06c.64-.77,1.41-1,1.75-.47A2.09,2.09,0,0,1,130.8,300.18Z" fill="#88959a"/><path d="M129.65,305.6c-.6,0-.81-.85-.47-1.75s1.15-1.58,1.75-1.53.85.81.47,1.75S130.16,305.86,129.65,305.6Z" fill="#88959a"/><path d="M272.72,64s-35.54,16-49.67,26.29-26.88,18.22-26.88,18.22C26.64,215.14,21.22,217.15,1.72,231.1a24,24,0,0,1,5-8.79c4.91-4,25.22-19.67,70.11-50.74,6-10.83,43-46.93,43-46.93,8.53-8.79,67.38-41.78,81.5-46.94a102.63,102.63,0,0,1,26.33-6l40.49-12.07Z" fill="#414653"/><path d="M55.23,237.59a40.67,40.67,0,0,1-18.52,32c-10.24,5.93-18.52,1.19-18.52-10.54a40.81,40.81,0,0,1,18.52-32C47,221.16,55.23,225.89,55.23,237.59Z" fill="#6b6b6b"/><path d="M50.45,240.4a30.35,30.35,0,0,1-13.74,23.73C29.12,268.39,23,265,23,256.28a30.35,30.35,0,0,1,13.74-23.73C44.31,228.16,50.45,231.7,50.45,240.4Z" fill="#ffa312"/><path d="M238,123.7c0,11.56-26.89,36.78-18.52,32-10.24,5.93-18.56,1.19-18.56-10.54s16.51-23.81,26.75-29.87S238,112,238,123.7Z" fill="#6b6b6b"/><path d="M233.17,126.64c0,8.54-24.71,29.87-13.74,23.73-7.6,4.27-13.79.85-13.79-7.85s14.38-17.07,22-21.34S233.17,117.77,233.17,126.64Z" fill="#ffa312"/><path d="M61.37,244.16c0-3.54.77-34.74-24.74-21,0,0-17.07,8.79-20.14,25.6a68.88,68.88,0,0,0-1,20.66l-2.17,1.06a71.53,71.53,0,0,1,.93-24C17.64,227.69,36.46,218,36.46,218c29.86-16,27.26,23.51,27.26,23.51s.34,0,.3.9Z" fill="#ffa312"/><path d="M243.11,126l-2.26,1.75c0-8,6-27.69-11.95-16.69,0,0-30.55,7.94-30.81,45.41-.85.51-1.62.89-2.34,1.28V156C196,114.44,229,105.39,229,105.39,250.49,92.21,243.58,119.39,243.11,126Z" fill="#ffa312"/><path d="M64.11,218.39c14-8.84,139.1-89.06,139.1-89.06a69.47,69.47,0,0,0-5.29,27.18c-.85.52-1.62.9-2.35,1.28l-2,1c-9.22,4.26-114.27,74.54-121.95,79.28-1.33.85-4.06,2.47-7.68,4.61l-2.65,1.53c0-2.17.38-14.8-5.38-21C59.28,221.33,62.06,219.71,64.11,218.39Z" fill="#de7f00"/><path d="M279.76,84V99.25l-3.88,8.06s-21.72,9-30.55,16.73l-2.22,1.83-2.26,1.75c0-5.12,7.29-13.86,1.83-18.05Z" fill="#de7f00"/><path d="M274.73,81.07l-9.18,5.85-5.93,10.83,20.14-13.69Z" fill="#ffa312"/><path d="M148.3,189l1-.73L192,156.64v-.13s-.26-3.88,5.42-22.91,25.6-25.3,25.81-25.35h.51l-3.62-30.81h-.34a123.3,123.3,0,0,0-16.3,3c-15.11,3.33-44.64,21.34-44.94,21.34V102l-8.91,35.21-.9,31.15Zm42.32-32.9L149.49,186.6V168.2l.9-31,8.83-34.86c2.65-1.62,30.08-18,44.33-21.12,10.8-2.39,14.26-2.9,15.32-3l3.37,28.89c-3.11,1.11-20.73,8-26.15,26A114.23,114.23,0,0,0,190.62,156.09Z" fill="#b16d15"/><path d="M1.72,231.1l2.65,20,32.34,27.48L93,302.32l-2.65-20Z" fill="#a5a9b2"/><path d="M2.19,234.43s10.29,5.89,11.65,9.73,3.37,14,0,12A52.06,52.06,0,0,1,4,248.34,74.17,74.17,0,0,1,2.19,234.43Z" fill="#72889d"/><path d="M4,237.24s8.79,5.42,9.43,8.2-.34,3-2.86.81a83.2,83.2,0,0,1-7.34-6.45C3,239.08,2.36,236.13,4,237.24Z" fill="#dcdbdd"/><path d="M5.65,244.24s8.74,5.47,9.43,8.2-.39,3.07-2.9.81a78.93,78.93,0,0,1-7.34-6.45C4.54,246.12,4,243.13,5.65,244.24Z" fill="#ff7400"/><path d="M17,246.12s18.51,14,21.33,15.49S67.86,274,68.63,275.48a9.48,9.48,0,0,1,1.19,5.29S39.27,268,38.29,267.41L16.36,251Z" fill="#23292d"/><path d="M17,254.65s20.57,14.81,23.52,16.26S68,282.52,68.8,284A9.48,9.48,0,0,1,70,289.3s-28.5-11.82-29.52-12.54L16.61,259.69Z" fill="#23292d"/><path d="M.23,254.27,34,282.09l56.59,22.28,4.9,20-60.8-27.06-27.95-24s-2-1.15-3.46-6.44S.23,254.27.23,254.27Z" fill="#979fa7"/><path d="M6.29,265.71s-1.67-5.55,3.37-2a11.27,11.27,0,0,1,6.23,9.05c1.07,4.48-5-.69-6.23-1.75A10.69,10.69,0,0,1,6.29,265.71Z" fill="#4a5764"/><path d="M7.7,268.44a2.07,2.07,0,0,1,1.13-.72,2.13,2.13,0,0,1,1.34.08,56,56,0,0,1,5.38,3.54s1.62,4.27-.94,3.07S7.7,269.55,7.7,268.44Z" fill="#e6e8ea"/><path d="M10.17,267.8s-.51-2.39,1.88-.77A13,13,0,0,1,15,269.42l.81,2.64v.86l-5-3.59S10.17,269,10.17,267.8Z" fill="#fefddd"/><path d="M2.92,265.11l33.79,27.48,54.54,22.66,4.26,9.13S61.67,315,40.94,303.6C13.07,288.32,6.8,273.17,6.8,273.17S4.62,272,3.34,266.73Z" fill="#979fa7"/><path d="M90.39,282.31,40.64,259.26,1.72,231.1a26.2,26.2,0,0,1,5-8.79C10,224.19,24.76,238.4,43.07,249a414,414,0,0,0,52.44,24.53Z" fill="#e6e8ea"/><path d="M76.82,171.58l88.67,51.2-70,50.74L42.17,252.18,6.84,222.31s10.5-8.15,17.07-12.8S68.84,176.91,76.82,171.58Z" fill="#e6e8ea"/><path d="M79.38,173.58s3.29,12.8,35.55,31.66C144.8,222.61,161.57,221,161.57,221Z" fill="#12181d"/><path d="M76.82,171.58s24.88,21.08,34.82,27c12.33,7.47,53.85,24.15,53.85,24.15l29.36-54.28-75.06-43.78S80.83,163.13,76.82,171.58Z" fill="#665f55"/><path d="M121.75,127S86,165.05,84.12,170.34C146,134.28,178,111,178,111l26.89-18.47S217,87.73,215.37,85s-27.82,2.73-38.4,8.54A522.16,522.16,0,0,0,121.75,127Z" fill="#999690"/><path d="M76.82,171.58s24.88,21.08,34.82,27c12.33,7.47,53.85,24.15,53.85,24.15l1.62-7.34-42.67-20.22a32.42,32.42,0,0,0-4.26-12.38c-3.72-5.89-26.72-17.75-26.72-17.75Z" fill="#78736a"/><path d="M268.12,59.56l43.69,19.5,45,31.71-40.53,12.07-88.67-51.2Z" fill="#e6e8ea"/><path d="M201.29,77.66l75.06,43.82,39.94,1.36s-26.88-21.33-36.53-27.69c-20.14-13-52.14-23.51-52.14-23.51A83.8,83.8,0,0,0,201.29,77.66Z" fill="#afb5bb"/><path d="M201.29,77.66s32.6,8.92,44.85,16.21c10,6.06,30.21,27.61,30.21,27.61l-81.5,46.94s-36.57-14.85-49.8-23.17a266.81,266.81,0,0,1-25.26-20.61,187.48,187.48,0,0,1,28.89-19.2C169.12,93.87,190.11,81.75,201.29,77.66Z" fill="#e6e8ea"/><path d="M105.24,300.1a69.14,69.14,0,0,0-1,20.65l-1.37.68a52.74,52.74,0,0,0-12.8-18.05l3.16-1.06-2.69-20a23.88,23.88,0,0,1,5-8.79c4.91-4,25.22-19.68,70.11-50.74,6-10.84,29.36-54.28,29.36-54.28,8.53-8.79,67.37-41.77,81.5-46.93l39.94,1.36,40.49-12.08,4.61,4.27,2,17.07,5.07,3v15.27l-3.88,8.07s-13.53,11.31-22.36,19l-2.22,1.83-2.26,1.75c0-5.16-.85-16.13-6.36-20.31-3-2.3-7.42-2.52-13.78,1.37a39.73,39.73,0,0,0-17.49,20.56,69.18,69.18,0,0,0-5.17,27.1l-2.3,1.28-2,1c-9.26,4.27-122.42,72.29-130.14,77-1.33.86-4.27,2.48-7.68,4.57l-2.65,1.53c0-2.13.39-14.76-5.33-21-3.63-3.92-9.56-5.29-19.42,0a42.94,42.94,0,0,0-18.81,20.87A30.38,30.38,0,0,0,105.24,300.1Z" fill="#95a1ad"/><path d="M368.6,135.18v15.27l-3.88,8.07s-13.53,11.31-22.36,19l-2.22,1.83-2.26,1.75c0-5.16-.85-16.13-6.36-20.31Z" fill="#7a848e"/><path d="M356.53,148l7.76-5.64.39,4.66-7.9,5.76Z" fill="#d4d6da"/><path d="M357,148.28l7-5,.34,3.5-7.08,5.12Z" fill="#ff7400"/><path d="M152.78,269.59c14.08-8.83,147.29-86.79,147.29-86.79a69.3,69.3,0,0,0-5.16,27.09l-2.3,1.28-2,1c-9.26,4.26-122.42,72.28-130.14,77-1.33.85-4.27,2.47-7.68,4.56l-2.65,1.54c0-2.13.38-14.76-5.33-20.95C148,272.53,150.73,270.91,152.78,269.59Z" fill="#c8ccd0"/><path d="M309.89,142.77l1.66,15.92s-14.68,11.86-17.45,26.15-6,25-6,25L163.4,281.79l-3.92-16.3,2.43-32.56Z" fill="#95a1ad"/><path d="M152.78,269.59c14.08-8.83,147.29-86.79,147.29-86.79a69.3,69.3,0,0,0-5.16,27.09l-2.3,1.28-2,1c-9.26,4.26-122.42,72.28-130.14,77-1.33.85-4.27,2.47-7.68,4.56l-2.65,1.54c0-2.13.38-14.76-5.33-20.95C148,272.53,150.73,270.91,152.78,269.59Z" fill="#7a848e"/><path d="M288.47,206.35l-.38,3.5L163.4,281.79l-.77-3.2,87.61-52,34.26-20.27,6.57-11.13Z" fill="#afb5bb"/><path d="M93.08,302.32s5.59-2.9,13.48-7.13a32.05,32.05,0,0,0-1.32,4.91,69.14,69.14,0,0,0-1,20.65l-2.14,1.07a20.19,20.19,0,0,1-6.65,2.56C92.23,323.53,91,305,91,305Z" fill="#7a848e"/><path d="M4.37,251.11l32.34,27.48,56.37,23.73h6.7l-5.08,1.83a15.18,15.18,0,0,1-10.88-.3L34.58,283.41.44,254.91Z" fill="#e6e8ea"/><path d="M.61,254.91s-1.32-1.07.47-3.8a36.41,36.41,0,0,1,2.73-3.79L4,248.43l.34,2.68Z" fill="#2a3140"/><path d="M361.39,115.16l.39,3.25-51.21,31-72.32,47.15-77.07,46L91,287l-.64-4.74s32.64-21.67,51.93-33.49S340.87,113.84,361.39,115.16Z" fill="#afb5bb"/><path d="M361.39,115.16s-35.54,16.05-49.67,26.29-26.88,18.22-26.88,18.22C115.35,266.35,109.89,268.35,90.39,282.31a23.88,23.88,0,0,1,5-8.79c4.91-4,25.22-19.68,70.11-50.74,6-10.84,29.36-54.28,29.36-54.28,8.53-8.79,67.38-41.77,81.5-46.93l39.94,1.36,40.49-12.08Z" fill="#d8dbde"/><path d="M150.13,295.32c0-3.5.77-34.69-24.75-21,0,0-17.07,8.79-20.14,25.6a68.8,68.8,0,0,0-1,20.65l-2.14,1.07a73.39,73.39,0,0,1,.9-24c3.41-18.74,22.23-28.38,22.23-28.38,29.87-16,27.27,23.51,27.27,23.51s.38,0,.3.85Z" fill="#c8ccd0"/><path d="M340,179.43l-2.26,1.75c0-8-2.22-29.87-20.14-19,0,0-22.36,10.2-22.66,47.66l-2.3,1.28v-1.7c.3-41.56,25.13-52.87,25.13-52.87C339.16,143.41,340.44,172.86,340,179.43Z" fill="#c8ccd0"/><path d="M363.4,132.27l-11.31,8.15-16.3,17.8,32.64-23-5.54-7.55Z" fill="#e6e8ea"/><path d="M196.77,170.76s-22.06,45.49-24,50.78c61.87-36,93.87-59.35,93.87-59.35l26.89-18.48s6.65-9.94,5.07-12.8c0,0-36,.43-46.93,6.19A531.73,531.73,0,0,0,196.77,170.76Z" fill="#483f32"/><path d="M236.33,144,240,176.7l-6,4.26-2.56-34.18Z" fill="#0e0600"/><path d="M254.76,165.05l27-18.31s6.7-9.94,5.07-12.8-16.59-1.24-29.86,1.28c14.72-5.8,41.81-4.27,41.81-4.27,1.58,2.73-5.08,12.8-5.08,12.8l-27,18.31s-31.87,23.3-93.87,59.35c.3-.85,1.19-2.81,2.39-5.46C227.79,184.85,254.76,165.05,254.76,165.05Z" fill="#0e0600"/><path d="M161.31,232.89v-.25c16.56-29.11,24-44.3,28.08-52.49A44.52,44.52,0,0,1,196,168.93a357.23,357.23,0,0,1,37.42-23.73,188.47,188.47,0,0,1,23.85-13.1,97.33,97.33,0,0,1,43-4.26c4.48.38,8,2.13,8.53,6.57L312,158.77v.34l-.3.22A53.82,53.82,0,0,0,293.93,187c-5.67,19-5.46,22.79-5.42,22.92v.38l-50.86,29.36-.86.51-74,42.67-4.26-17.07ZM293,186.38a56.12,56.12,0,0,1,18-28.12l-3.25-24c-.51-3.84-3.58-5.21-7.46-5.51A96.06,96.06,0,0,0,257.58,133a185.36,185.36,0,0,0-23.39,12.8l4.7,42.33-.9,31v18.56l49.54-28.2A113.37,113.37,0,0,1,293,186.38ZM163.79,280.9,237,238.65V219.37l.85-30.94-4.61-41.78a406.93,406.93,0,0,0-36.44,23.17,44.06,44.06,0,0,0-6.27,10.89c-4,8.15-11.52,23.34-28.08,52.4l-2.39,32.34Z" fill="#96a2af"/><path d="M209.36,77.66S238.84,86.19,249.25,92s27.1,25.26,27.1,25.26,17.07,0,24.37.55a33.68,33.68,0,0,1,9.85,1.71s-19.2-13.87-32.9-23.51S229.2,73.86,229.2,73.86A125,125,0,0,0,209.36,77.66Z" fill="#665f55"/><path d="M71.32,291.14s0-9.18,4.73-11.06c2.78-1.15,13.1,4.27,17.63,4.27,3.07,0,8.06,10.16,4.26,12.8-5,3.25-4.73,2.52-6.91,2.22A88,88,0,0,1,71.32,291.14Z" fill="#72889d"/><path d="M71.66,290.54a18,18,0,0,1,12.5.26c5.59,1.75,7.21,1.79,8.19,5.16a9.79,9.79,0,0,1,.39,2.94,44.14,44.14,0,0,1-9-2.64C78.14,294.12,71.74,291.56,71.66,290.54Z" fill="#acb9c5"/><path d="M92.23,285.08a7.29,7.29,0,0,1,4.9,3.8c2.05,3.5,1.84,5.63.81,7.21a9.23,9.23,0,0,1-4.26,2.47S91,287.68,92.23,285.08Z" fill="#fd3c1d"/><path d="M76,287.08a116.64,116.64,0,0,1,13.78,4.61c1,.85,1.16,2.69,0,3.29s-13.27-3.72-14.42-4.74S73.67,287.3,76,287.08Z" fill="#ff7400"/><path d="M76.69,282a124.35,124.35,0,0,1,13.1,4.26c1.88,1.11,1.37,3.42.26,3.63a45.25,45.25,0,0,1-14.47-4.61C74.48,284.23,74.18,282.26,76.69,282Z" fill="#dcdbdd"/><path d="M104.39,292.59a46.65,46.65,0,0,1,20.82-23.17c14.72-7.08,21.34,0,21.34,0s-6.36-12.46-24.07-2.69a32.64,32.64,0,0,0-18.09,25.86Z" fill="#e6e8ea"/><path d="M296.49,184.12A46.49,46.49,0,0,1,314,158.86c13.31-8.53,18.82-3.88,18.82-3.88a15,15,0,0,0-18.74-.64,38.65,38.65,0,0,0-17.62,29.78Z" fill="#e6e8ea"/><path d="M60.44,253.84l62-39.81,24.07,10.5L85.31,262.42Z" fill="#eef0f2"/><path d="M78.23,180l16,15.23L33.21,237,19.52,224.53Z" fill="#eef0f2"/><path d="M60.44,253.84l63.79-37.42L122.48,214Z" fill="#95a1ad"/><path d="M78.23,180l1.88,1.79L19.52,224.53Z" fill="#95a1ad"/><path d="M124.23,216.42l19.67,9.73,2.65-1.62L122.48,214Z" fill="#1b1a1a"/><path d="M94.19,195.21,93,196,78,183.22l.21-3.24Z" fill="#1b1a1a"/><path d="M283.65,66.48l-17.92,7.59s22.4,10.8,26.88,15.49,18.94,16.3,18.94,16.3L340.06,99s-24.67-18.3-28.25-19.93Z" fill="#d8dbde"/><path d="M76.27,308.8s-1.75-5.07,3.54-2.94,5.5,3.11,6.61,7.25-5.25.73-6.61,0A7.26,7.26,0,0,1,76.27,308.8Z" fill="#4a5764"/><path d="M77.72,311.15a3.19,3.19,0,0,1,1.16-1,3.08,3.08,0,0,1,1.48-.36,46.12,46.12,0,0,1,5.72,2s1.67,3.71-1,3.37S77.76,312.26,77.72,311.15Z" fill="#e6e8ea"/><path d="M80.36,309.78s-.55-2.21,2-1.28A11.52,11.52,0,0,1,85.48,310l.86,2.43v.81l-5.25-2.17S80.53,311,80.36,309.78Z" fill="#fefddd"/><path d="M29.29,295.11a4.65,4.65,0,0,1-1.48-1.31A4.5,4.5,0,0,1,27,292l-.6-9.22c0-1,.77-1.36,2-.68l15.7,9.05a4.62,4.62,0,0,1,1.47,1.31,4.79,4.79,0,0,1,.8,1.8l.55,9.18c0,1-.77,1.36-2,.68Z" fill="#d3d3d3"/><path d="M45,303.77l-15.71-9a3.76,3.76,0,0,1-1.19-1.06,3.83,3.83,0,0,1-.64-1.46l-.6-9.17c0-.85.64-1.11,1.58-.55l15.7,9A3.79,3.79,0,0,1,45.93,294l.6,9.21C46.61,304.07,45.89,304.28,45,303.77Z" fill="#efdca9"/><path d="M46.06,296.39c0-.86.38-3.59-2-4.91l-15.7-9c-2.22-1.58-1.49,2.09-1.45,2.9Z" fill="#5e6095"/><path d="M193.06,167.78,161.57,221.2l3.92,1.58,29.36-54.28Z" fill="#d8dbde"/><path d="M119.79,124.72c1.28.81,1.75.3,1.75.3v1.15L79.38,173.58l-2.56-2.17A443.65,443.65,0,0,1,119.79,124.72Z" fill="#d8dbde"/><path d="M170.53,219.49h.3c.42,0,0,0,0-.42a31.51,31.51,0,0,1,1.11-4.27,1.3,1.3,0,0,1,.63-.26,9.42,9.42,0,0,1,2.35-.47,3.76,3.76,0,0,1,2.09.77,41.36,41.36,0,0,1,4.53,3.12l.59.51a2,2,0,0,1,1.11,2.39,16.48,16.48,0,0,1,0,3c0,.73-.42,3.16-1.06,3.5l-2.69,1.54a1.89,1.89,0,0,1-1,.31,1.85,1.85,0,0,1-1-.31,47.25,47.25,0,0,1-5.21-3.2c-.55-.38-.42-1.15-1.15-1s-.81.29-1.41,0a2.94,2.94,0,0,1-1.19-1.28,2.17,2.17,0,0,1,.3-2.61Z" fill="#7a848e"/><path d="M144.8,149.94l-1.54,1.58-4.1-2.09-2-.13L136.05,152l.38,1.79,5.21,3.88L151,162.1l1.41-.42,1.11-3.25-1.32-2-5.55-3,1.54-1.54-1.84-1.66Z" fill="#706d65"/><path d="M233.34,201.7l-6.91,4c-.94.51-1.71,0-1.71-1.28v-3a4.12,4.12,0,0,1,.49-1.81,4.2,4.2,0,0,1,1.22-1.43l6.91-4c.94-.56,1.71,0,1.71,1.28v3a4.4,4.4,0,0,1-.49,1.81A4.31,4.31,0,0,1,233.34,201.7Z" fill="#445970"/><path d="M236.32,197.31l-13,7.51v-2.14l13-7.51Z" fill="#d8dbde"/><path d="M302.72,156.81l-6.53,4.61c-.89.6-1.71,0-1.79-1.15l-.26-3a4,4,0,0,1,1.41-3.37l6.53-4.57c.9-.64,1.71,0,1.79,1.11l.26,3a3.93,3.93,0,0,1-1.41,3.37Z" fill="#445970"/><path d="M305.32,152.2l-12.24,8.58-.22-2.14,12.29-8.57Z" fill="#d8dbde"/><path d="M147.14,256.06l-.59,1v2.81l5.88-3.2Z" fill="#394f67"/><path d="M153,253l-5.89,3.11v2.82L154,253.5Z" fill="#e07436"/><path d="M154,253.5l-5.89,3.12v2.81l5.89-3.2Z" fill="#ff9436"/><path d="M148.08,256.62l-.94-.56v2.82l.94.55Z" fill="#db5e16"/><path d="M40,262.42l1.79,15.11-1.32-.6-2-1.5-.6-14.08Z" fill="#a5a9b2"/></svg>