<svg id="Layer_1" data-name="Layer 1" xmlns="http://www.w3.org/2000/svg" viewBox="0 0 133.29 195.5"><path d="M69.85,175.49a12.35,12.35,0,0,0,2,6.75l6.48,9.81a12.08,12.08,0,0,0,10.08,5.45h23.37a12,12,0,0,0,5.72-1.45,12.15,12.15,0,0,0,4.37-4l6.47-9.81a12.27,12.27,0,0,0,2-6.75l0-14.65H69.84ZM33.48,69.21A67.11,67.11,0,0,0,50,113.41c6.25,7.2,16,22.24,19.77,34.92,0,.1,0,.2,0,.3h60.67c0-.1,0-.2,0-.3,3.73-12.68,13.51-27.72,19.76-34.92a67.11,67.11,0,0,0,16.5-44.2c0-37.19-30-67.32-66.85-67.2C61.29,2.13,33.48,33.69,33.48,69.21Zm66.64-30.55A30.46,30.46,0,0,0,69.83,69.21a6.06,6.06,0,1,1-12.12,0,42.64,42.64,0,0,1,42.41-42.77,6.11,6.11,0,0,1,0,12.22Z" transform="translate(-33.48 -2.01)" fill="#fff"/></svg>