<svg id="Layer_1" data-name="Layer 1" xmlns="http://www.w3.org/2000/svg" xmlns:xlink="http://www.w3.org/1999/xlink" viewBox="0 0 391.18 390.61"><defs><linearGradient id="linear-gradient" x1="195" y1="404.84" x2="195" y2="240.25" gradientUnits="userSpaceOnUse"><stop offset="0" stop-color="#fff"/><stop offset="0.24" stop-color="#fbfbfb"/><stop offset="0.48" stop-color="#f0f0ef"/><stop offset="0.71" stop-color="#dcdcdc"/><stop offset="0.95" stop-color="#c1c1c0"/><stop offset="1" stop-color="#babab9"/></linearGradient></defs><rect width="391.18" height="390.28" fill="#dbdbdb"/><ellipse cx="191.5" cy="234.51" rx="111.48" ry="111.41" fill="#a0a0a0"/><path d="M243,259s-18.11,64.16,5.82,85.82c5,4.5,22.32,10.39,22.32,10.39l1.3,4.93s-.15-7.32,4.47-2.53,18.46,7.18,18.46,7.18l26,14.37s16.15,9,16.15,12.57v3.59H52.5L79,372l20.19-4.79s6.92-8.39,10.39-7.19l3.46,1.2,6.21-5.86s26.48-12.18,32.68-22.05c11.67-18.6,5.82-65.9,5.82-65.9Z" transform="translate(-4.41 -4.7)" fill="url(#linear-gradient)"/><path d="M139.26,246.8s-9,15.53,29.42,51.24c3.44,3.19,11.18,12.92,14.89,14.34,13.5,5.18,20.85,1.69,28.4-.55,6.05-1.79,14.21-11.28,14.21-11.28s32-24.59,32.59-37.13,4.52-16.62,4.52-16.62.88-1.66,4.1-.12c5.62,2.69,8.92-8.12,10-20,.79-9.1-4.25-20.74-10-20.2s-3.43,1.48-3.43,1.48c-.08-.65.46-11.45-1.7-19.87-3.28-12.78-2.94-28.48-16.79-36.66s-26.8-22.85-35.29-20.13-31.05,18.5-42,14.68-18.22,14.85-21.92,22.35c-4.54,9.2-7.5,41.42-6.92,48l.58,6.55s-4-17.45-7.5-18.54-9.81-1.09-8.66,12-2.22,4.54,7.5,27.26C136.87,256.83,139.26,246.8,139.26,246.8Z" transform="translate(-4.41 -4.7)" fill="#f4f4f4"/><path d="M254,243.49s.15.64.31,1.73c.48,3.22,1,10.35-2.41,16.48-4.55,8.21-15,18.92-15,18.92s-15,40.71,0,51.42,41.26,19.28,41.26,19.28-1.05-19.28,5.94-26.42a109.82,109.82,0,0,1,16.44-13.22s12.94-13.56,6.29-16.42,3.85-6.78,3.85-6.78l-7.34-5.36s11.18-2.5,7.34-7.86,11.19-23.2,11.19-23.2,6.64-8.22-4.55-27.14-7-36.06-7-36.06-3.85-14.64-9.09-31.43-17.14-36.06-27.62-44.27-20.11-26.78-36.89-28.92c-5.9-.76-17,1.43-17,1.43s-29-14-47-7.32-46,24.45-68.35,52.3-8,38.21-8,38.21-5.24,1.79-7.34-8.57c0,0-5.46,10.72,0,19.28,0,0-28.32,31.07-20.28,47.13S76,232.42,76,232.42,56.83,251,62,265.27c1.57,4.31-1.52,7.23-.31,9.7a17.14,17.14,0,0,0,10.45,8.86l5.06,14.58a60.61,60.61,0,0,0,31.18,35l37.88,17.95s-5.24-12.5,3.5-26.42,13.92-34.53,7.15-42.7c-11.29-13.63-23.75-30.18-22.18-46.93.76-8.16-3.26-11.46-3-21.15.35-11.76,6.14,2.14,7-1.88,1.57-7.53,2.23-21.5,6.14-25.17,12.93-12.14,7.63-3.22,22.37-16.42,19.93-17.86,4.9-2.5,19.93-17.86a111.8,111.8,0,0,1,29-21.42s7,14.3,28.67,20.71c12.86,3.8-7.58,53.23,9.79,54.27.76.05,1.38-2.17,3.73-3.12,9.2-3.76,10.65,5.13,11.82,15.36a33.56,33.56,0,0,1-3.53,19.3l-.13.24C264.07,242.94,253.62,240.43,254,243.49Z" transform="translate(-4.41 -4.7)" fill="#a8a8a8"/></svg>