<svg id="Layer_1" data-name="Layer 1" xmlns="http://www.w3.org/2000/svg" viewBox="0 0 318 461.94"><ellipse cx="159" cy="446.94" rx="67.5" ry="15" fill="#8e8e8e" opacity="0.4"/><path d="M256,32.64c-45.92,0-98.43,71.33-98.43,159,0,113.28,92.2,278.24,95.48,285.21.75,1.6,1.82,2.51,2.95,2.51a7.55,7.55,0,0,0,5.63-2.51c6.26-7,153.37-171.93,153.37-285.21C415,104,343.68,32.64,256,32.64Zm0,242.29a83.29,83.29,0,1,1,83.29-83.29A83.29,83.29,0,0,1,256,274.93Z" transform="translate(-97 -32.64)" fill="#ff6469"/><path d="M253.05,476.85c-3.28-7-95.48-171.93-95.48-285.21,0-87.67,52.51-159,98.43-159-87.67,0-159,71.33-159,159,0,113.28,147.11,278.24,153.37,285.21a7.55,7.55,0,0,0,5.63,2.51C254.87,479.36,253.8,478.45,253.05,476.85Z" transform="translate(-97 -32.64)" fill="#d2555f"/></svg>