<svg id="Layer_1" data-name="Layer 1" xmlns="http://www.w3.org/2000/svg" viewBox="0 0 400 400"><path d="M137,314.73,314,212.56c12.24-7.1,10.68-19.55-3.48-27.75s-35.78-9.07-48.07-2L85.55,285c-12.3,7.11-10.74,19.55,3.42,27.75C103.18,320.75,124.81,321.78,137,314.73Z" fill="#aaadb0"/><path d="M81.76,287.6c0,16.81,11.88,23.55,26.5,15.1a58.3,58.3,0,0,0,26.5-45.64c0-16.81-11.87-23.55-26.5-15.15a58.41,58.41,0,0,0-26.5,45.69ZM93.32,281A32.86,32.86,0,0,1,108.26,255c8.25-4.78,14.94-1,14.94,8.5a33,33,0,0,1-14.94,25.93c-8.24,4.77-14.94.94-14.94-8.5Z" fill="#090327"/><path d="M88.45,291.65c0,16.8,11.88,23.55,26.5,15.09A58.21,58.21,0,0,0,141.4,261.1c0-16.8-11.82-23.54-26.45-15.14a58.48,58.48,0,0,0-26.5,45.69ZM100,285a32.88,32.88,0,0,1,15-25.93c8.25-4.77,14.94-1,14.94,8.51A32.9,32.9,0,0,1,115,293.52C106.65,298.29,100,294.45,100,285Z" fill="#1a1f21"/><path d="M91.09,290.15c0,15.14,10.69,21.21,23.86,13.59a52.57,52.57,0,0,0,23.86-41.13c0-15.15-10.69-21.21-23.86-13.59a52.42,52.42,0,0,0-23.86,41.13ZM100,285A32.88,32.88,0,0,1,115,259c8.25-4.77,14.94-1,14.94,8.5A33,33,0,0,1,115,293.47c-8.3,4.82-15,1-15-8.46Z" fill="#1a1f21"/><path d="M93.74,288.59c0,13.43,9.49,18.83,21.21,12.09a46.66,46.66,0,0,0,21.16-36.31c0-13.43-9.49-18.82-21.16-12.08a46.71,46.71,0,0,0-21.21,36.3ZM100,285a32.88,32.88,0,0,1,15-25.93c8.25-4.77,14.94-1,14.94,8.51A32.9,32.9,0,0,1,115,293.52C106.65,298.29,100,294.45,100,285Z" fill="#2d3133"/><path d="M96.54,287c0,11.67,8.19,16.39,18.41,10.37a40.54,40.54,0,0,0,18.36-31.74c0-11.66-8.19-16.38-18.36-10.37A40.38,40.38,0,0,0,96.54,287Zm3.42-2a32.88,32.88,0,0,1,15-25.93c8.25-4.77,14.94-1,14.94,8.51A32.9,32.9,0,0,1,115,293.52C106.65,298.29,100,294.45,100,285Z" fill="#434749"/><path d="M98.15,286.05c0,10.63,7.52,14.88,16.8,9.54A36.89,36.89,0,0,0,131.7,266.7c0-10.63-7.52-14.93-16.75-9.59a37,37,0,0,0-16.8,28.94Zm1.81-1a32.88,32.88,0,0,1,15-25.93c8.25-4.77,14.94-1,14.94,8.51A32.9,32.9,0,0,1,115,293.52C106.65,298.29,100,294.45,100,285Z" fill="#aeb1b3"/><path d="M104.58,282.37c0,6.53,4.61,9.18,10.37,5.86a22.72,22.72,0,0,0,10.37-17.84c0-6.54-4.61-9.18-10.37-5.86a22.61,22.61,0,0,0-10.37,17.84Z" fill="#aeb1b3"/><path d="M109.87,279.26c0,3.16,2.28,4.46,5.19,2.85a11.23,11.23,0,0,0,5.18-8.71c0-3.17-2.28-4.46-5.18-2.86a11.09,11.09,0,0,0-5.19,8.72Z" fill="#616567"/><path d="M111.79,278.22c0,2,1.4,2.8,3.16,1.76a6.9,6.9,0,0,0,3.11-5.44c0-2-1.4-2.8-3.11-1.77a6.87,6.87,0,0,0-3.16,5.45Z" fill="#aeb1b3"/><path d="M113.45,276.61l3.52-.73,8.87-36.66-3.52.72Z" fill="#322920"/><path d="M111.94,278.89l5.55-1.14,1.77-7.36-5.5,1.19Z" fill="#322920"/><path d="M121.69,238.49l5.55-1.14-4.09,16.86-5.5,1.14Z" fill="#322920"/><path d="M123.25,210.54l-.42,4.77c5.19-3,18.1-10.94,18.47-16.23.46-6.59,6.9-53.58,6.9-55.29s-13.59-8.92-13.59-8.92C126.1,145.24,107,181.55,107,181.55l-5.4,14.73Z" fill="#e71f23"/><path d="M100.69,205.61l17.74,25.52,10.37,6.79,11.46,7.52L122.58,220v-1.87l-1.77-1.66,2.08-1.14.41-4.77-21.73-14.26Z" fill="#b30005"/><path d="M122.52,220l17.69,25.46,10.37,6.79,17.89-10.37,39.37-22.92,21.31-17.32-1.66-1.35L211.68,187.2l-1.2-5.81L186,204.57s-28.57,17.58-41.49,24.12a16.16,16.16,0,0,1-6.17,2.38,93.72,93.72,0,0,1-15.82-12.75Z" fill="#eb6878"/><path d="M89.54,262l.57.31a8,8,0,0,0,4.82,1.19c1,0,3.58,1.24,4.57.73,0,0,2.9-3.48,3.06-3.58l10.89-7.32,15.19-9.17,3.58-19.51-6.53-3.42-10.38,3.32s-15,6.9-27.22,32.16A4.14,4.14,0,0,0,89.54,262Z" fill="#ea3b3f"/><path d="M99.5,264.22a8,8,0,0,0,3.06-.83l13-7.94L118,254.1a35.68,35.68,0,0,1,27.7-2l3.57-3.32-12.49-23.39-10.38,3.32S111.74,237.3,99.5,264.22Z" fill="#e71f23"/><path d="M158.2,221.84l1.61-9.17-3.26-15.3,6.84-35.79-.73-11.93-11.46-3-19.91,55.55,17.06,34.59Z" fill="#b30005"/><path d="M239.94,198.19c0,16.76,11.88,23.5,26.5,15.1a58.41,58.41,0,0,0,26.5-45.69c0-16.81-11.87-23.55-26.5-15.1a58.41,58.41,0,0,0-26.5,45.69Zm11.57-6.69a32.93,32.93,0,0,1,14.93-25.93c8.25-4.77,14.94-.93,14.94,8.51A32.79,32.79,0,0,1,266.44,200C258.09,204.78,251.51,201,251.51,191.5Z" fill="#222729"/><path d="M246.79,201.1c0,16.8,11.82,23.55,26.45,15.09a58.36,58.36,0,0,0,26.34-45.84c0-16.76-11.87-23.55-26.5-15.1a58.32,58.32,0,0,0-26.29,45.85Zm11.51-6.64a33,33,0,0,1,14.94-25.93c8.24-4.77,14.93-.93,14.93,8.56A33,33,0,0,1,273.24,203c-8.25,4.72-15.15.88-15.15-8.56Z" fill="#222729"/><path d="M249.38,199.6c0,15.09,10.68,21.21,23.86,13.58a52.56,52.56,0,0,0,23.85-41.12c0-15.15-10.68-21.21-23.85-13.64a52.64,52.64,0,0,0-23.86,41.18Zm8.92-5.19a33,33,0,0,1,14.94-25.93c8.24-4.77,14.93-.93,14.93,8.56A33,33,0,0,1,273.24,203c-8.25,4.77-15.15.93-15.15-8.51Z" fill="#1a1f21"/><path d="M252.08,198c0,13.38,9.49,18.82,21.16,12a46.7,46.7,0,0,0,21.16-36.3c0-13.38-9.44-18.78-21.16-12A46.63,46.63,0,0,0,252.08,198Zm6.22-3.58a33,33,0,0,1,14.94-25.93c8.24-4.77,14.93-.93,14.93,8.56A33,33,0,0,1,273.24,203c-8.25,4.72-15.15.88-15.15-8.56Z" fill="#2d3133"/><path d="M254.82,196.28c0,11.67,8.25,16.38,18.42,10.37a40.56,40.56,0,0,0,18.41-31.74c0-11.67-8.25-16.34-18.41-10.37a40.49,40.49,0,0,0-18.42,31.74Zm3.48-2a33,33,0,0,1,14.94-25.93c8.24-4.77,14.93-.93,14.93,8.56a33,33,0,0,1-14.93,25.93c-8.25,4.88-15.15,1-15.15-8.4Z" fill="#434749"/><path d="M256.48,195.5c0,10.37,7.52,14.88,16.76,9.54A36.89,36.89,0,0,0,290,176.15c0-10.63-7.47-14.93-16.75-9.59a37.05,37.05,0,0,0-16.76,28.94Zm1.82-1a33,33,0,0,1,14.94-25.93c8.24-4.77,14.93-.93,14.93,8.56A33,33,0,0,1,273.24,203c-8.25,4.72-15.15.88-15.15-8.56Z" fill="#aeb1b3"/><path d="M262.92,191.76c0,6.59,4.61,9.23,10.37,5.92a22.9,22.9,0,0,0,10.37-17.85c0-6.53-4.67-9.17-10.37-5.91a23,23,0,0,0-7.32,7.69,22.73,22.73,0,0,0-3.05,10.15Z" fill="#969a9d"/><path d="M268.46,188.7c0,3.22,2.23,4.52,5.19,2.91a11.09,11.09,0,0,0,5.19-8.72c0-3.21-2.23-4.51-5.19-2.9a11.16,11.16,0,0,0-5.19,8.71Z" fill="#616567"/><path d="M270.07,187.62c0,2,1.45,2.8,3.17,1.81a7,7,0,0,0,2.23-2.34,7,7,0,0,0,.93-3.11c0-2-1.4-2.8-3.16-1.81a7.15,7.15,0,0,0-3.17,5.45Z" fill="#d7a32f"/><path d="M148.35,236.78l4,5,7.63,1.35,47.14-27.59,22.3-17.06,3.11-3,8.35-6.74,44.66-37,16.13-15.56-1-11.2L296,117.39l-18.82-8.66-23.76,11-66.17,34.48,1,9.86,9.12,11.51L199,190l-9,16.34L166,222.26l-7.77-.42Z" fill="#e71f23"/><path d="M187.25,154.16l1,9.86,9.12,11.51L199,190l13.28,5.4-1.71-19.5-5.71-7.84,1.25-6.63Z" fill="#b30005"/><path d="M199,190l13.28,5.4,7.47-.11-13.38,8.3L166.5,225.42l-18.15,9.75,9.86-13.33,1.6-9.17-.67-3.22,39.41-23.65Z" fill="#ea3b3f"/><path d="M150.58,252.24,136.79,248l-6.18-3.79-5.34-14.83L114,223.61l4.92-6,3.63,2.34Z" fill="#b30005"/><path d="M122.52,220l17.69,25.46,10.37,6.8,9.86,1.34,46.31-24.47,24.17-17.22,2.85-10.37-1.19-5.81-4.83,4.56L208.1,218.94c-2.39,1.45-26.3,16.13-39.37,22.92a25.69,25.69,0,0,1-8.19,3.43,55.85,55.85,0,0,1-11.93-10s-1.61-2.85-3.68-6.74c-3.63-6.8-8.56-17-8.25-21.16.42-6.59,14.78-54.56,14.78-56.28a31.86,31.86,0,0,0-2.85-7.26c-8.5,10.38-19.4,51.87-19.4,51.87l-6,14.83-.41,4.77-.32,2.8Z" fill="#e71f23"/><path d="M221.79,200.27a8.11,8.11,0,0,0,3.89,7.93c.41.26,6.79,4.52,7.31,4.62,1.92.42-1.61-4.15.93-5.65A26.7,26.7,0,0,0,246,186.42c0-7.67-5.45-10.73-12.09-6.9a26.82,26.82,0,0,0-12.13,20.75Z" fill="#322920"/><path d="M230,205.4c0,7.68,5.19,10.74,12.09,6.9a26.62,26.62,0,0,0,12.08-20.74c0-7.68-5.18-10.79-12.08-6.9A26.59,26.59,0,0,0,230,205.4Z" fill="#524a42"/><path d="M232.42,205.09c0,7.06,5.19,9.91,11.15,6.33a24.6,24.6,0,0,0,11.2-19.24c0-7.11-5.18-10-11.2-6.38a24.56,24.56,0,0,0-11.15,19.29Z" fill="#322920"/><path d="M235.17,202.4c0,4.4,3.11,6.17,7,3.94a15.1,15.1,0,0,0,6.9-11.93c0-4.36-3.06-6.12-6.9-3.94a15.56,15.56,0,0,0-7,11.93Z" fill="#3a3e40"/><path d="M244,215.93l2.07,1.92,3.11-2.07,19-12.35,27-24.73,6.07-8.72.52-2.59a4,4,0,0,0,0-1.09,5.16,5.16,0,0,0-.62-2.49,4.6,4.6,0,0,0-3.47-2.54,4.15,4.15,0,0,0-1.72,0l-15.56,11.82-22.35,23.65-12.91,12.71Z" fill="#bec2c5"/><path d="M244,215.93l2.07,1.92h1.66a2.22,2.22,0,0,0,1.2-.65,2.27,2.27,0,0,0,.62-1.22,7.38,7.38,0,0,0-.57-3.68,12.84,12.84,0,0,0-2.29-2.75l11.26-9.8s28.26-24.74,28.89-25.36,10.68-12.19,11.3-12.91a4.11,4.11,0,0,0-1.71,0L280.91,173.3l-22.82,23.44-12.91,12.71Z" fill="#969a9d"/><path d="M244,215.93l2.18,2,22.4-14.53,27-24.73,6.07-8.72.52-2.59a4,4,0,0,0,0-1.09,5.17,5.17,0,0,0-.63-2.49,17.81,17.81,0,0,1-1.09,5.19,81.59,81.59,0,0,1-6.17,8.19c-.72.57-27.23,25.93-29,25.93S249.74,214.48,247.87,215a24.18,24.18,0,0,1-3.83,1Z" fill="#7f8990"/><path d="M231.38,219.82l-8.92-4.67,1.82-3.42,7.52,3.94,15-4.2,1,3.68Z" fill="#d5d8da"/><path d="M262.34,127.77l-1-1.82,23-13.22-2-15.09-14.83-9-2,12.55-15.61,9.39-1-1.76,14.73-8.87,2.33-14.63,18.31,11.1,2.33,17.43Z" fill="#d5d8da"/><path d="M193.63,127.09a41.57,41.57,0,0,0-9.24,5.19c-3.31,2.49-3.42,10.37-3.52,10.84a75.05,75.05,0,0,0,.88,11.3l12.86,8.51,57.47-45.74,18-11.88.47-5.81-9.34-6.17L240.92,106.5Z" fill="#484038"/><path d="M213.65,138.86a41.69,41.69,0,0,0-9.29,5.19c-3.27,2.49-10.37,7.36-10.37,7.57a84.69,84.69,0,0,0,.88,11.36l11.51-1.35,54.2-35.42,14.68-18.62-1.82-7.16L264,94.37l-2.54-1,9.34,6.17-18.47,17.69Z" fill="#322920"/><path d="M221.43,177a14.24,14.24,0,0,0,.41,3.63,21.49,21.49,0,0,0,10,14l15.87,1.66,4.93-20.13,57-44.18s-10.37-12.71-15-11.41-43.41,13.95-52.54,20.74a57.88,57.88,0,0,0-14,16A41.39,41.39,0,0,0,221.43,177Z" fill="#b30005"/><path d="M221.43,177c1.39,4.72,12.49,8.56,12.49,8.56s68.72-50.41,69.24-55.91-8.76-9.07-8.76-9.07c-4.72,1.29-43.41,13.95-52.54,20.74a57.88,57.88,0,0,0-14,16A41.44,41.44,0,0,0,221.43,177Z" fill="#eb4246"/><path d="M237,167.8a35.51,35.51,0,0,0-3.11,17.74c1,9.49,13.75,10.74,13.75,10.74l38.43-31.74,22.61-20.75.72-11.77-6.22-2.34a214,214,0,0,0-39.67,13.8C250.93,150.53,241.08,158.26,237,167.8Z" fill="#e71f23"/><path d="M100.69,205.61l21.83,14.32.16-1.82.26-2.8.46-4.77-21.83-14.37Z" fill="#ea3b3f"/><path d="M125.12,99.24a4.64,4.64,0,0,1-1.48,1.69,4.74,4.74,0,0,1-2.1.8c-1.3,0-1.82-.88-1.19-2.18a4.81,4.81,0,0,1,1.48-1.69,5,5,0,0,1,2.09-.85C125.22,97,125.74,97.74,125.12,99.24Z" fill="#322920"/><path d="M134.14,107.44l4.67,5.13-4.31,4.31-14.31-15.77,5.08-3.42Z" fill="#322920"/><path d="M139.33,109.36s-1.77-.94-4.72,1.19a46.18,46.18,0,0,0-8.82,9.33c-.93,1.66,0,6.28,6.79,4.41a15.49,15.49,0,0,0,6.32-2.45,15.67,15.67,0,0,0,4.68-4.91C145.19,114.13,144.36,112,139.33,109.36Z" fill="#86a49d"/><path d="M149.7,113.61l13,6.22,10.58,9.34L152.91,153l-28.83-21.42,1.66-10,10.73-10.06,5.5-1.81Z" fill="#e71f23"/><path d="M148.35,143.79s.68,7.89.93,9.18-4.14,5.19-6.48,5.76-14.05-7.47-14.05-7.47l-1-6.12,4.51-4.67Z" fill="#b30005"/><path d="M136.47,111.53l5.81,7.52,17.64,11.41,13.32-1.29-10.58-9.34L142,109.72Z" fill="#b30005"/><path d="M164.74,127.3a48.66,48.66,0,0,1,8.45,1.87c0,.57-2.38,14.52-2.38,14.52l-6.07,9.59L153.23,153v-1.86l-.94-8.2,7.89-12.45Z" fill="#e71f23"/><path d="M172.31,132s-1.87-.63-4.36,2a58.85,58.85,0,0,0-8,11.51c-.57,1.82,2.07,5.5,8.56,2.34a15.51,15.51,0,0,0,5.71-3.58,15.34,15.34,0,0,0,3.67-5.65C179,135.55,177.81,133.63,172.31,132Z" fill="#86a49d"/><path d="M175.47,133.57s-1.91-.62-4.4,2A70.45,70.45,0,0,0,162,146.75c-.57,1.81.78,4.09,7.26,1s7.31-2.95,8.35-6S180.92,135.23,175.47,133.57Z" fill="#bfcfb8"/><path d="M174.33,142.44a1.87,1.87,0,0,1-.44-.66,1.93,1.93,0,0,1-.13-.79,4.93,4.93,0,0,1,2.08-3.84,1.4,1.4,0,0,1,.7-.18,1.43,1.43,0,0,1,.7.18h0l19.55,9,2,.57-2.28,5.7-1.14-.46-20.75-9.39Z" fill="#322920"/><path d="M199.75,148.36a5,5,0,0,1-.59,2.16,4.79,4.79,0,0,1-1.49,1.67c-1.14.68-2,0-2-1.45a4.81,4.81,0,0,1,.55-2.16,5.05,5.05,0,0,1,1.47-1.68C198.81,146.28,199.75,146.9,199.75,148.36Z" fill="#322920"/><path d="M130.1,122.11l14.47,9.34-6.38,21.05-13.8-9.69-1.87-8.72,1.87-9.38Z" fill="#b2b4b5"/><path d="M138.19,134.41l2.07,10.52-2.07,7.58,6.17-2,4-6.69.31-7.15-4.1-5.19Z" fill="#989da1"/><path d="M138.19,134.4l-13.8-9.69,5.71-2.6,14.46,9.34Z" fill="#86a49d"/><path d="M125.64,127.14l-1.56,7.73,1.56,7.21,11.4,8,1.72-6.23L137,135.13Z" fill="#a6b8bc"/><path d="M129.53,139.75h4l5.19,4.09-1.71-8.71-11.41-8,.46,8.56Z" fill="#648b82"/><path d="M132.38,135.7l-.78,3.79.78,3.47,5.55,3.89.83-3-.83-4.25Z" fill="#eaefe7"/><path d="M126.88,86a17.75,17.75,0,0,0,4.72,11.77c2.64,2.28,4.77.72,4.77-3.48a17.5,17.5,0,0,0-4.77-11.77C129,80.21,126.88,81.81,126.88,86Z" fill="#bfcfb8"/><path d="M126.31,86.79a14.31,14.31,0,0,0,3.84,9.55c2.07,1.86,3.78.62,3.78-2.8A14.39,14.39,0,0,0,130.15,84C128,82.18,126.31,83.37,126.31,86.79Z" fill="#cddac9"/><path d="M128.12,94.16C127.71,98.72,130,118,130,118l.37,1.51L132,119s-2.49-22.51-2-28.37a8.58,8.58,0,0,0-.42-2.18C129.16,87.93,128.44,90.89,128.12,94.16Z" fill="#d8e2d4"/><path d="M159.81,112a10.36,10.36,0,0,0,5.86,9.54c3.22,1,5.81-1.55,5.81-5.76a10.36,10.36,0,0,0-5.81-9.54C162.4,105.15,159.81,107.7,159.81,112Z" fill="#bfcfb8"/><path d="M160.23,112.83a8.3,8.3,0,0,0,4.72,7.73c2.59.83,4.72-1.25,4.72-4.67a8.37,8.37,0,0,0-4.93-7.78C162.3,107.33,160.23,109.41,160.23,112.83Z" fill="#cddac9"/><path d="M162.67,116.15c-1.09,3.73-9.39,19.29-9.39,19.29l.31,1.51,1.55-.47s8.87-19.71,9.39-21.26c0,0,.62-1.25.42-1.56S163.65,113,162.67,116.15Z" fill="#d8e2d4"/><path d="M299.58,162.77A113.9,113.9,0,0,1,290.14,174c-2.23,1.81-25.93,24.89-27.69,25.93s-14.83,10.68-14.83,10.68l-1.4-.41,13.06-13.44s21.63-22.5,22.1-22.82,14.73-11.56,15.87-11.66a4.48,4.48,0,0,1,2.33.46Z" fill="#d8dbdd"/></svg>