<svg id="Capa_1" enable-background="new 0 0 512 512" height="512" viewBox="0 0 512 512" width="512" xmlns="http://www.w3.org/2000/svg"><g><path d="m426.416 110.28c-36.933-38.204-84.733-62.497-136.609-69.887l14.786-14.786c5.858-5.858 5.858-15.355 0-21.213-5.857-5.857-15.355-5.857-21.213 0l-37.987 37.986c-5.858 5.857-5.858 15.355 0 21.213l37.986 37.986c2.929 2.929 6.768 4.394 10.606 4.394s7.678-1.465 10.606-4.394c5.858-5.857 5.858-15.355 0-21.213l-8.495-8.495c41.213 8.065 79.012 28.499 108.749 59.259 37.505 38.796 58.16 89.888 58.16 143.863.002 114.144-92.862 207.007-207.005 207.007s-207.007-92.863-207.007-207.006c0-43.555 13.367-85.219 38.657-120.487 24.765-34.537 58.905-60.308 98.732-74.526 7.802-2.786 11.868-11.368 9.083-19.171-2.785-7.802-11.369-11.868-19.171-9.083-45.603 16.281-84.686 45.777-113.025 85.298-28.966 40.396-44.276 88.105-44.276 137.97 0 63.307 24.653 122.824 69.418 167.589 44.765 44.762 104.282 69.416 167.589 69.416s122.824-24.653 167.589-69.417c44.765-44.765 69.418-104.282 69.418-167.589 0-61.798-23.65-120.295-66.591-164.714z"/><path d="m101.884 274.994c0 84.979 69.136 154.115 154.116 154.115 84.979 0 154.115-69.136 154.115-154.115s-69.136-154.117-154.115-154.117c-84.981 0-154.116 69.137-154.116 154.117zm163.324 13.351c-21.592-7.633-34.102-13.649-43.178-20.768-11.17-8.761-16.283-23.892-13.345-39.487 3.188-16.918 14.986-30.386 30.791-35.147.219-.066.434-.119.652-.183v-6.04c0-8.284 6.716-15 15-15s15 6.716 15 15v5.085c10.473 2.453 17.783 7.24 20.738 9.449 6.635 4.961 7.993 14.36 3.033 20.996-4.961 6.636-14.358 7.992-20.996 3.033-3.176-2.374-11.942-7.482-24.774-3.616-7.581 2.284-9.542 9.745-9.963 11.978-.831 4.41.124 8.561 2.377 10.327 7.847 6.153 21.925 11.586 34.662 16.088 23.3 8.236 36.256 29.821 32.24 53.71-1.972 11.729-7.872 22.612-16.616 30.646-6.013 5.524-13.02 9.452-20.701 11.668v7.182c0 8.284-6.716 15-15 15s-15-6.716-15-15v-5.707c-9.979-1.173-18.306-4.246-29.505-11.572-6.933-4.535-8.876-13.832-4.341-20.765 4.535-6.934 13.833-8.876 20.765-4.341 10.383 6.793 14.309 7.417 27.981 7.322 13.461-.09 21.271-10.123 22.832-19.407.764-4.534 1.057-15.605-12.652-20.451z"/></g></svg>