<svg id="Layer_1" data-name="Layer 1" xmlns="http://www.w3.org/2000/svg" viewBox="0 0 315 315"><g id="NewGroupe0"><g id="NewGroup12-0"><path d="M303.85,304.1a146.49,146.49,0,1,1,42.92-103.6,145.53,145.53,0,0,1-42.92,103.6ZM200.25,43a157.5,157.5,0,1,0,157.5,157.5A157.51,157.51,0,0,0,200.25,43Z" transform="translate(-42.75 -43)"/><path d="M268.61,193.47a8.94,8.94,0,0,1-12.63,0l-55.73-55.73-55.73,55.73a8.93,8.93,0,1,1-12.63-12.63l61.93-61.93a8.88,8.88,0,0,1,6.32-2.62h.22a8.88,8.88,0,0,1,6.32,2.62l61.93,61.93a8.93,8.93,0,0,1,0,12.63Zm0,78a8.92,8.92,0,0,1-12.63,0l-55.73-55.72-55.73,55.72a8.93,8.93,0,0,1-12.63-12.63l61.93-61.92a8.88,8.88,0,0,1,6.32-2.62h.22a8.88,8.88,0,0,1,6.32,2.62l61.93,61.92a8.93,8.93,0,0,1,0,12.63ZM200.25,70.36a130.15,130.15,0,1,0,92,38.12,129.27,129.27,0,0,0-92-38.12Z" transform="translate(-42.75 -43)"/></g></g></svg>